<svg width="459" height="429" viewBox="0 0 459 429" fill="none" xmlns="http://www.w3.org/2000/svg">
<path d="M205.841 206.471C196.377 207.126 187.176 202.92 183.758 200.735H182.18L180.603 209.748V219.58L184.546 230.231C184.546 230.231 187.701 234.328 188.49 234.328C189.278 234.328 177.448 259.727 177.448 259.727V305.609L175.083 327.731L178.238 336.744C175.346 335.924 173.979 335.76 191.645 341.66C209.311 347.559 217.408 329.37 219.248 319.538C220.036 308.613 221.614 287.42 221.614 290.042C221.614 292.664 232.655 297.689 238.176 299.874C251.32 304.244 278.87 312.983 283.918 312.983C288.965 312.983 294.959 310.798 297.325 309.706C305.212 302.332 300.48 281.849 299.691 279.391C299.06 277.424 295.222 274.202 293.382 272.836C290.836 271.32 288.938 270.43 283.918 268.739L262.624 263.004L261.047 267.101C260.966 266.349 260.473 265.807 258.681 264.643L255.526 258.908L252.372 263.004L249.217 264.643V262.185L250.794 257.269L249.217 254.811C248.691 254.538 247.482 253.828 246.851 253.172C246.22 252.517 245.536 251.26 245.274 250.714L244.485 243.34C246.4 239.556 250.385 230.1 253.16 223.676C255.955 217.208 256.315 204.286 255.526 198.277L249.217 189.265C223.191 208.109 217.67 205.651 205.841 206.471Z" fill="#263238"/>
<path d="M187.244 235.836C187.099 235.834 186.957 235.798 186.828 235.73C186.7 235.662 186.588 235.563 186.502 235.442C184.026 231.837 179.499 221.317 179.026 216.467C178.553 211.616 181.218 200.08 181.329 199.556C181.389 199.316 181.536 199.111 181.74 198.982C181.944 198.854 182.187 198.813 182.419 198.869C182.651 198.924 182.853 199.072 182.983 199.279C183.112 199.487 183.158 199.739 183.111 199.982C183.111 200.113 180.414 211.747 180.84 216.368C181.266 220.989 185.682 231.116 187.985 234.393C188.056 234.495 188.106 234.609 188.134 234.731C188.162 234.852 188.166 234.978 188.147 235.101C188.128 235.225 188.086 235.343 188.023 235.449C187.96 235.555 187.877 235.648 187.78 235.721C187.616 235.813 187.43 235.853 187.244 235.836V235.836Z" fill="#263238"/>
<path d="M200.225 342.954L194.215 342.512C200.73 340.693 204.768 329.796 207.291 322.307C207.765 320.898 208.222 319.554 208.679 318.325C210.919 312.246 211.124 293.319 210.998 286.043C210.067 282.619 207.559 274.278 205.793 271.574C205.425 271.027 205.168 270.408 205.038 269.754C204.908 269.101 204.907 268.426 205.036 267.772C205.588 265.02 208.301 263.233 210.683 261.677C211.488 261.182 212.262 260.634 213.001 260.038C213.537 256.531 217.465 255.433 220.383 254.63C221.298 254.368 222.165 254.122 222.844 253.86C225.667 251.173 238.033 226.626 240.746 213.435C243.049 202.308 239.169 198.375 239.169 198.343L242.734 194.017C243.396 194.59 249.153 200.08 246.156 214.631C243.822 225.938 230.304 256.908 225.162 259.055C224.079 259.476 222.973 259.831 221.85 260.12C220.671 260.391 219.524 260.792 218.427 261.316C218.08 263.61 215.935 265.02 213.695 266.511C212.587 267.147 211.542 267.894 210.572 268.739C213.159 273.098 216.045 283.618 216.377 284.847L216.471 285.552C216.471 288.239 216.881 312 213.79 320.357C213.364 321.537 212.922 322.815 212.465 324.159C209.642 332.647 209.547 340.365 200.225 342.954Z" fill="white"/>
<path d="M301.883 286.125C297.577 283.93 286.363 281.636 279.643 280.161C276.772 279.538 274.296 278.981 272.435 278.522C269.346 277.76 266.097 278.166 263.271 279.669C262.432 280.051 261.567 280.368 260.684 280.62C257.277 281.504 254.958 278.031 253.286 275.491C253.097 275.212 252.892 274.884 252.671 274.589C250.542 275.884 247.608 277.654 244.784 276.818C244.13 276.613 243.523 276.27 243.002 275.811C242.481 275.351 242.057 274.785 241.756 274.147C241.037 272.536 240.507 270.842 240.179 269.1C239.658 266.822 239.295 265.38 238.207 264.479C234.484 261.398 234.5 259.94 234.421 259.563L237.213 254.827C238.477 256.763 239.959 258.535 241.63 260.104C243.776 262.127 245.153 264.883 245.51 267.871C245.748 269.077 246.097 270.257 246.551 271.394C247.714 270.988 248.827 270.438 249.863 269.755C250.636 269.226 251.475 268.807 252.356 268.51C254.832 267.871 256.346 270.149 257.797 272.328C258.392 273.285 259.068 274.184 259.816 275.015C260.211 274.884 260.684 274.688 261.204 274.458C265.125 272.477 269.591 271.99 273.823 273.082C275.574 273.541 278.003 274.065 280.81 274.72C287.497 276.043 294.017 278.154 300.243 281.013L301.883 286.125Z" fill="white"/>
<path d="M332.957 316.965C332.779 316.965 332.604 316.914 332.452 316.818C322.262 309.919 299.328 307.969 299.076 307.953C298.948 307.956 298.82 307.932 298.702 307.881C298.583 307.83 298.476 307.754 298.388 307.658C298.299 307.561 298.231 307.446 298.188 307.321C298.146 307.195 298.129 307.061 298.139 306.929C298.149 306.796 298.185 306.666 298.247 306.549C298.308 306.432 298.392 306.33 298.494 306.249C298.596 306.167 298.713 306.109 298.837 306.078C298.962 306.047 299.092 306.044 299.218 306.068C300.18 306.068 322.878 308.067 333.446 315.228C333.548 315.295 333.635 315.382 333.704 315.484C333.773 315.587 333.822 315.703 333.847 315.825C333.872 315.947 333.873 316.073 333.85 316.196C333.827 316.319 333.781 316.435 333.714 316.539C333.631 316.669 333.519 316.776 333.387 316.851C333.254 316.925 333.107 316.964 332.957 316.965Z" fill="#263238"/>
<path d="M324.754 298.317C324.042 298.301 323.336 298.179 322.657 297.957C319.391 296.99 302.151 287.371 301.457 286.961C301.245 286.843 301.086 286.642 301.015 286.403C300.944 286.164 300.967 285.905 301.079 285.683C301.196 285.461 301.392 285.296 301.625 285.222C301.858 285.149 302.109 285.173 302.325 285.29C308.461 288.731 320.701 295.4 323.145 296.138C323.8 296.415 324.518 296.489 325.212 296.351C325.268 296.131 325.399 295.939 325.58 295.811C325.762 295.682 325.981 295.626 326.199 295.652C326.417 295.678 326.619 295.784 326.768 295.951C326.916 296.119 327.002 296.336 327.01 296.564C327.001 296.815 326.937 297.062 326.822 297.283C326.707 297.505 326.545 297.696 326.347 297.842C325.881 298.178 325.321 298.345 324.754 298.317V298.317Z" fill="#263238"/>
<path d="M334.392 285.65C334.392 285.65 325.717 294.434 325.717 295.384C325.717 296.334 331.884 302.021 332.342 303.921C332.799 305.822 336.916 303.446 338.051 303.921C339.187 304.397 338.966 307.723 335.764 308.428C332.562 309.132 332.799 317.686 333.935 318.866C335.07 320.046 344.976 325.273 350.386 331.205C355.796 337.137 358.84 343.069 361.112 344.019C363.383 344.97 365.686 345.658 366.364 340.939C367.043 336.219 367.737 325.994 361.806 318.636C355.875 311.279 353.351 310.558 351.522 310.558C349.692 310.558 346.79 310.804 347.878 308.198C348.966 305.593 351.522 303.282 350.607 301.07C349.692 298.858 342.547 284.946 334.392 285.65Z" fill="#263238"/>
<path d="M366.064 347.493C365.398 347.528 364.736 347.372 364.149 347.043C363.562 346.714 363.073 346.223 362.736 345.625C362.682 345.514 362.65 345.394 362.642 345.27C362.633 345.147 362.649 345.022 362.687 344.905C362.725 344.788 362.785 344.679 362.864 344.586C362.943 344.493 363.039 344.417 363.146 344.363C363.36 344.254 363.607 344.235 363.834 344.312C364.061 344.388 364.25 344.554 364.361 344.773C364.44 344.904 365.055 345.969 366.979 345.478C369.613 344.789 371.711 344.003 372.248 340.758C372.987 333.677 371.592 326.531 368.257 320.308C366.23 317.132 363.8 314.255 361.033 311.754C358.556 309.345 356.616 307.444 356.474 305.412C356.474 304.675 356.474 303.938 356.395 303.168C356.529 300.227 355.988 297.295 354.818 294.614C352.752 290.337 347.846 284.782 343.193 282.733C338.919 280.915 336.979 281.718 335.307 286.011C335.213 286.243 335.033 286.427 334.809 286.523C334.584 286.618 334.332 286.617 334.108 286.519C333.884 286.421 333.707 286.235 333.615 286.001C333.523 285.768 333.525 285.506 333.619 285.273C335.748 279.997 338.745 278.719 343.95 280.964C349.156 283.209 354.329 289.157 356.569 293.762C357.888 296.679 358.515 299.881 358.399 303.102C358.399 303.845 358.43 304.566 358.493 305.265C358.572 306.543 360.386 308.313 362.468 310.345C365.363 312.962 367.899 315.978 370.008 319.308C373.588 325.924 375.068 333.545 374.235 341.086C373.446 345.428 370.528 346.543 367.61 347.297C367.107 347.439 366.586 347.505 366.064 347.493V347.493Z" fill="#263238"/>
<path d="M203.475 198.834C198.979 198.834 190.856 198.228 186.613 194.131C184.916 192.504 183.431 190.653 182.197 188.625C181.379 187.224 180.387 185.94 179.247 184.807C178.232 183.898 177.5 182.696 177.143 181.355C176.787 180.013 176.822 178.591 177.244 177.27C177.335 177.038 177.51 176.853 177.732 176.755C177.953 176.657 178.203 176.653 178.427 176.745C178.54 176.789 178.643 176.855 178.731 176.941C178.819 177.027 178.889 177.13 178.938 177.245C178.986 177.36 179.012 177.483 179.014 177.609C179.016 177.734 178.993 177.858 178.947 177.974C178.665 178.942 178.664 179.974 178.945 180.942C179.225 181.91 179.775 182.77 180.525 183.415C181.743 184.657 182.803 186.055 183.679 187.577C184.831 189.48 186.22 191.216 187.812 192.739C192.197 196.966 202.008 197.015 204.815 196.917C205.058 196.917 205.291 197.017 205.462 197.195C205.634 197.374 205.73 197.615 205.73 197.868C205.73 198.12 205.634 198.361 205.462 198.54C205.291 198.718 205.058 198.818 204.815 198.818L203.475 198.834Z" fill="#263238"/>
<path d="M210.194 207.29C202.595 207.377 195.036 206.148 187.827 203.652C178.158 199.719 178.363 195.459 178.758 194.295C178.878 193.867 179.02 193.446 179.184 193.034C179.562 192.05 179.704 191.69 179.184 190.805C177.89 188.773 178.947 184.365 179.073 183.873C179.133 183.631 179.282 183.422 179.489 183.293C179.696 183.165 179.943 183.126 180.177 183.185C180.412 183.251 180.613 183.409 180.737 183.627C180.861 183.844 180.897 184.103 180.84 184.349C180.414 185.987 180.098 188.806 180.714 189.756C181.118 190.326 181.356 191.004 181.398 191.711C181.44 192.417 181.284 193.121 180.95 193.738C180.8 194.082 180.679 194.438 180.587 194.803C180.161 196.442 181.991 199.211 188.474 201.882C196.361 205.16 216.487 207.88 228.396 201.882C247.718 192.214 249.09 188.642 249.043 187.773C248.996 186.905 248.917 186.135 248.822 185.152C248.342 182.53 248.44 179.83 249.106 177.253C250.179 174.369 251.251 171.502 250.147 167.913C249.415 164.63 249.039 161.271 249.027 157.901C248.917 155.672 248.822 153.558 248.601 151.952C248.332 149.059 247.455 146.262 246.03 143.759C245.937 143.681 245.86 143.585 245.803 143.476C245.746 143.367 245.711 143.247 245.699 143.123C245.687 142.999 245.699 142.875 245.735 142.756C245.77 142.637 245.827 142.527 245.904 142.432C246.061 142.239 246.284 142.117 246.525 142.093C246.767 142.068 247.008 142.143 247.198 142.301C248.523 143.464 249.879 148.02 250.352 151.756C250.605 153.394 250.699 155.607 250.81 157.884C250.813 161.094 251.162 164.293 251.851 167.421C253.144 171.649 251.851 174.976 250.81 177.909C250.233 180.239 250.158 182.673 250.589 185.037C250.683 185.987 250.778 186.905 250.825 187.757C250.92 189.887 248.791 193.853 229.137 203.668C223.869 206.29 216.976 207.29 210.194 207.29Z" fill="#263238"/>
<path d="M292.388 208.929C288.291 208.818 284.216 208.269 280.227 207.29C276.552 206.405 275.826 201.407 275.29 197.753C275.197 196.483 274.904 195.238 274.422 194.066C272.246 192.559 271.899 191.231 271.899 187.757C271.716 185.968 270.961 184.295 269.753 183.005C268.984 181.98 268.308 180.883 267.734 179.728C266.457 177.073 262.025 164.095 263.097 160.359C263.854 157.753 260.794 151.854 255.747 149.822C250.258 147.594 239.295 140.548 238.838 140.253C238.735 140.187 238.646 140.101 238.575 140C238.504 139.899 238.454 139.784 238.426 139.662C238.398 139.54 238.394 139.414 238.413 139.29C238.432 139.167 238.475 139.048 238.538 138.942C238.668 138.729 238.873 138.578 239.108 138.52C239.344 138.462 239.592 138.502 239.8 138.63C239.911 138.63 251.078 145.89 256.409 148.053C262.167 150.38 265.873 157.18 264.848 160.9C264.075 163.62 267.766 175.549 269.359 178.925C269.919 179.972 270.568 180.965 271.299 181.891C272.75 183.508 273.633 185.587 273.807 187.79C273.807 191.067 274.107 191.543 275.526 192.526C276.536 193.23 276.804 195.017 277.104 197.442C277.593 200.719 278.192 204.816 280.637 205.406C289.091 207.421 298.65 207.946 299.659 204.373C300.511 201.374 300.148 196.622 299.817 192.427C299.512 189.823 299.449 187.195 299.628 184.578C300.022 181.678 294.896 161.506 291.741 149.462C290.243 143.595 289.06 138.974 288.681 137.139C287.577 131.732 255.684 107.742 247.513 104.366C240.478 101.4 229.973 97.5001 219.879 97.8115C219.745 97.8239 219.61 97.802 219.486 97.7478C219.363 97.6935 219.254 97.6084 219.169 97.5001C217.662 95.6645 215.981 93.9902 214.153 92.5022L213.601 93.1249C211.424 95.5665 206.329 101.318 199.026 100.335C195.011 99.8888 191.08 98.8401 187.354 97.2215C187.38 98.0929 187.087 98.9421 186.534 99.5976L186.392 99.7123C186.234 99.827 182.496 102.252 172.196 101.351C162.259 100.417 156.802 99.9089 147.275 90.0115C144.609 87.2421 141.517 83.8665 138.221 80.2778C130.618 71.806 121.943 62.3509 118.63 60.6304C114.845 58.664 108.031 57.8774 105.57 57.648C105.302 60.6467 103.898 69.3972 96.7688 72.3959C96.7688 73.5757 97.2736 77.0497 101.643 82.998L104.056 86.2753C111.422 96.4022 128.694 120.114 134.167 122.555C135.934 123.342 138.899 124.44 142.274 125.701C151.502 129.143 163 133.419 166.423 136.992C169.326 139.99 171.818 151.445 174.026 161.572C175.319 167.471 176.66 173.583 177.449 174.566C179.068 176.161 180.948 177.443 183.001 178.351C184.375 178.89 185.618 179.735 186.644 180.826C186.776 181.037 186.821 181.293 186.771 181.539C186.72 181.784 186.579 181.999 186.376 182.137C186.174 182.27 185.93 182.318 185.695 182.269C185.46 182.22 185.252 182.079 185.114 181.874C184.219 181.131 183.232 180.514 182.181 180.039C179.899 179.026 177.818 177.582 176.045 175.779C175.02 174.517 173.994 169.945 172.244 161.998C170.351 153.051 167.654 140.924 165.13 138.286C161.975 135.009 150.24 130.634 141.659 127.438C138.237 126.16 135.35 125.062 133.442 124.161C127.527 121.523 110.681 98.4014 102.605 87.2913L100.192 84.014C94.1663 75.8207 94.9076 71.7732 95.018 71.3472C95.0496 71.1917 95.1203 71.0476 95.2228 70.9296C95.3252 70.8116 95.456 70.7239 95.6016 70.6753C103.488 67.9224 103.804 56.632 103.819 56.5173C103.823 56.3911 103.852 56.2669 103.902 56.1521C103.953 56.0373 104.026 55.9341 104.115 55.8487C104.205 55.7632 104.31 55.6972 104.424 55.6545C104.539 55.6117 104.66 55.5931 104.782 55.5997C105.176 55.5997 114.466 56.2715 119.451 58.877C123.031 60.8106 131.454 69.9707 139.593 78.8358C142.874 82.4081 145.902 85.7837 148.615 88.5367C157.669 97.9425 162.59 98.3686 172.401 99.3354C181.045 100.155 184.673 98.4505 185.288 98.1064C185.476 97.6578 185.557 97.1688 185.525 96.6808C185.525 96.14 185.525 94.8947 186.644 94.8947C187.037 94.9462 187.417 95.074 187.764 95.2715C191.413 96.905 195.28 97.9548 199.231 98.385C205.541 99.2207 210.273 93.9934 212.244 91.8304C212.595 91.3704 213.01 90.9673 213.475 90.6341C214.011 90.372 215.052 89.864 220.226 95.9106C230.51 95.714 241.094 99.6304 248.192 102.629C256.409 106.119 289.091 130.159 290.448 136.844C290.811 138.63 292.025 143.235 293.492 149.069C298.082 166.897 301.836 181.842 301.379 184.939C301.224 187.42 301.292 189.91 301.584 192.378C301.915 196.737 302.294 201.669 301.347 204.996C300.527 208.011 296.663 208.929 292.388 208.929Z" fill="#263238"/>
<path d="M198.884 108.266C196.069 108.281 193.271 107.81 190.603 106.873C181.487 103.596 181.581 100.4 181.692 99.7941C181.729 99.5442 181.861 99.3201 182.058 99.1711C182.254 99.022 182.5 98.9603 182.741 98.9994C182.981 99.0385 183.197 99.1753 183.34 99.3796C183.484 99.584 183.543 99.8392 183.506 100.089C183.506 100.253 183.868 102.449 191.203 105.005C196.172 106.659 201.508 106.696 206.498 105.112C211.487 103.528 215.892 100.397 219.121 96.1399C219.195 96.0419 219.287 95.9602 219.392 95.8996C219.496 95.839 219.611 95.8007 219.73 95.787C219.849 95.7732 219.97 95.7843 220.085 95.8196C220.199 95.8549 220.306 95.9137 220.399 95.9924C220.587 96.1527 220.707 96.3831 220.734 96.6342C220.76 96.8854 220.691 97.1373 220.541 97.3361C217.953 100.731 214.663 103.476 210.913 105.369C207.164 107.261 203.053 108.251 198.884 108.266Z" fill="#263238"/>
<path d="M119.04 33.2155L6.07275 12.6504L110.507 16.4521L119.04 33.2155Z" fill="#E8E8E8"/>
<path d="M100.444 16.0751V10.7495L6.07275 12.6504L100.444 16.0751Z" fill="#D9D9D9"/>
<path d="M106.564 10.6349L87.0681 0L6.07275 12.6504L106.564 10.6349Z" fill="#E8E8E8"/>
<path d="M95.9012 72.5924C95.769 72.5975 95.6374 72.5706 95.5169 72.5137C95.3965 72.4568 95.2904 72.3715 95.2072 72.2647C95.0652 72.1008 81.2006 55.3701 77.068 51.9945C76.2163 51.3063 75.333 50.5525 74.4181 49.7823C70.7375 46.3478 66.6253 43.4482 62.1939 41.163C56.5155 38.6722 49.2599 26.5462 48.9602 26.0218C48.898 25.9142 48.8569 25.7949 48.8391 25.6708C48.8213 25.5467 48.8273 25.4202 48.8566 25.2985C48.8859 25.1767 48.9379 25.0622 49.0098 24.9614C49.0818 24.8605 49.1721 24.7754 49.2756 24.7109C49.3792 24.6463 49.494 24.6036 49.6135 24.5851C49.7329 24.5666 49.8547 24.5728 49.9719 24.6032C50.0891 24.6337 50.1993 24.6878 50.2964 24.7625C50.3934 24.8372 50.4754 24.931 50.5375 25.0386C50.5375 25.1533 57.7932 37.1483 62.951 39.426C67.4621 41.4088 71.784 45.0794 75.5696 48.3075L78.1879 50.5033C82.4782 53.9936 96.0116 70.331 96.5952 71.0357C96.6738 71.1289 96.7337 71.2373 96.7715 71.3548C96.8092 71.4723 96.8242 71.5964 96.8154 71.7199C96.8066 71.8434 96.7742 71.9639 96.7202 72.0743C96.6661 72.1847 96.5915 72.2828 96.5006 72.363C96.3353 72.5145 96.1215 72.5963 95.9012 72.5924V72.5924Z" fill="#263238"/>
<path d="M68.2193 23.826L8.50195 12.6504L70.396 31.9865L68.2193 23.826Z" fill="#9E9E9E"/>
<path d="M79.4971 34.8214L101.69 41.7529L103.267 30.3642L76.8945 25.4482C76.8945 25.4482 77.4781 29.0041 77.8094 30.3642C78.2699 31.8895 78.8339 33.3789 79.4971 34.8214V34.8214Z" fill="#9E9E9E"/>
<path d="M190.856 98.4667H190.603C190.487 98.4327 190.378 98.3752 190.283 98.2974C190.189 98.2196 190.11 98.123 190.051 98.0133C189.992 97.9036 189.955 97.783 189.942 97.6583C189.928 97.5336 189.939 97.4074 189.972 97.2869C189.972 97.2869 191.691 90.978 189.972 86.6356C189.912 86.5178 189.876 86.3882 189.867 86.255C189.857 86.1218 189.875 85.9882 189.919 85.8627C189.963 85.7373 190.032 85.6228 190.122 85.5269C190.211 85.4309 190.319 85.3556 190.438 85.3058C190.557 85.2561 190.685 85.2329 190.814 85.238C190.942 85.243 191.068 85.2761 191.183 85.3351C191.299 85.394 191.401 85.4776 191.483 85.5803C191.565 85.6829 191.625 85.8024 191.66 85.931C193.6 90.8469 191.77 97.5327 191.66 97.8112C191.604 97.9913 191.497 98.1498 191.354 98.2666C191.211 98.3834 191.037 98.453 190.856 98.4667V98.4667Z" fill="#263238"/>
<path d="M211.234 95.1568C211.09 95.1569 210.947 95.1212 210.818 95.0529C210.689 94.9845 210.578 94.8854 210.493 94.7636C208.001 91.1913 203.837 84.9316 203.995 83.1783C204.022 82.9305 204.141 82.7035 204.327 82.5447C204.512 82.3859 204.749 82.3076 204.988 82.3262C205.228 82.355 205.448 82.478 205.604 82.6699C205.759 82.8618 205.838 83.1081 205.824 83.3585C205.824 84.3581 208.979 89.4871 211.976 93.6493C212.046 93.7504 212.097 93.865 212.125 93.9864C212.152 94.1079 212.157 94.2338 212.138 94.3571C212.119 94.4803 212.077 94.5985 212.014 94.7048C211.951 94.8111 211.868 94.9034 211.771 94.9766C211.614 95.0919 211.427 95.1547 211.234 95.1568V95.1568Z" fill="#263238"/>
<path d="M313.303 242.767C313.085 242.763 312.868 242.735 312.656 242.685C310.132 242.112 300.258 231.608 298.46 229.051C297.07 227.226 295.295 225.757 293.271 224.758C292.266 226.207 291.636 227.9 291.441 229.674C291.252 232.099 290.889 234.475 289.533 235.442C289.208 235.665 288.838 235.805 288.452 235.854C288.066 235.902 287.675 235.857 287.309 235.721C284.501 234.836 284.927 232.132 285.526 228.396L285.731 227.069C286.357 224.144 287.421 221.341 288.886 218.761C289.138 218.269 289.406 217.728 289.548 217.401C288.823 216.139 285.858 211.059 283.823 207.569C283.699 207.353 283.661 207.095 283.717 206.85C283.773 206.605 283.918 206.393 284.122 206.258C284.225 206.192 284.339 206.148 284.458 206.127C284.577 206.107 284.698 206.112 284.816 206.141C284.933 206.17 285.044 206.223 285.141 206.296C285.239 206.37 285.321 206.462 285.384 206.569C286.346 208.208 291.11 216.286 291.331 216.762C291.552 217.237 291.331 217.892 290.495 219.58C289.13 221.983 288.135 224.593 287.545 227.314L287.324 228.642C286.709 232.542 286.678 233.476 287.829 233.836C288.271 233.984 288.429 233.836 288.507 233.836C289.328 233.263 289.548 230.428 289.627 229.494C289.795 227.038 290.782 224.72 292.419 222.939C292.583 222.822 292.77 222.744 292.966 222.71C293.162 222.676 293.363 222.687 293.555 222.743C296.031 223.866 298.199 225.612 299.864 227.822C302.293 231.1 311.505 240.407 313.035 240.751C313.208 240.751 313.508 240.833 313.587 240.669C313.666 240.506 313.587 239.195 312.23 237.867C310.416 236.229 304.438 228.035 304.959 226.151C305.014 225.946 305.122 225.76 305.273 225.616C305.423 225.471 305.609 225.373 305.811 225.332C306.662 225.151 307.514 225.79 312.388 230.248C314.896 232.558 318.697 236.032 319.644 236.229C320.009 236.304 320.377 236.358 320.748 236.393C320.55 236.028 320.328 235.678 320.085 235.344C319.328 234.246 317.83 232.542 316.379 230.887C314.605 229.029 312.995 227.011 311.568 224.856C311.456 224.635 311.433 224.376 311.504 224.137C311.575 223.897 311.734 223.697 311.946 223.578C312.16 223.46 312.41 223.433 312.643 223.504C312.876 223.574 313.073 223.736 313.192 223.955C314.551 225.964 316.065 227.855 317.719 229.609C319.297 231.378 320.748 233.05 321.568 234.23C322.388 235.409 323.145 236.638 322.499 237.507C321.852 238.375 320.574 238.293 319.344 238.015C318.114 237.736 315.385 235.409 311.237 231.608C310.132 230.592 308.808 229.363 307.735 228.445C309.367 231.31 311.304 233.976 313.508 236.393C315.259 238.031 315.969 240.063 315.275 241.456C315.11 241.855 314.834 242.193 314.483 242.427C314.131 242.66 313.72 242.779 313.303 242.767V242.767Z" fill="#263238"/>
<path d="M322.546 234.836C321.254 234.763 319.994 234.394 318.855 233.754C318.677 233.615 318.553 233.414 318.508 233.187C318.462 232.96 318.498 232.724 318.609 232.523C318.719 232.321 318.897 232.169 319.108 232.094C319.319 232.019 319.549 232.027 319.754 232.115C320.711 232.689 321.806 232.967 322.909 232.918L322.988 232.82C322.988 232.82 322.988 232.263 321.237 230.608C318.401 227.516 315.766 224.232 313.351 220.776C313.221 220.587 313.151 220.361 313.151 220.129C313.151 219.897 313.221 219.67 313.351 219.481C314.439 218.105 323.745 222.628 323.84 222.759C323.902 222.772 323.967 222.772 324.029 222.759C324.029 222.759 324.029 221.989 322.862 220.973C321.411 219.744 313.287 216.647 301.111 212.681L300.89 212.599C298.303 211.763 297.215 207.945 297.104 207.519C297.069 207.289 297.116 207.053 297.237 206.856C297.359 206.66 297.545 206.517 297.762 206.454C297.978 206.391 298.209 206.413 298.411 206.516C298.612 206.619 298.77 206.795 298.855 207.011C299.107 207.896 300.038 210.289 301.426 210.797H301.647C310.669 213.746 321.884 217.63 324.013 219.432C326.143 221.235 326.095 222.841 325.591 223.758C325.324 224.166 324.918 224.453 324.456 224.562C323.994 224.672 323.509 224.595 323.098 224.348C322.152 223.857 318.65 222.415 316.316 221.579C318.259 224.257 320.367 226.802 322.625 229.199C324.281 230.837 324.975 231.935 324.944 232.918C324.923 233.219 324.838 233.512 324.696 233.775C324.555 234.038 324.359 234.266 324.124 234.442C323.663 234.772 323.101 234.912 322.546 234.836V234.836Z" fill="#263238"/>
<path d="M177.827 16.0915C177.827 16.0915 166.534 19.1066 165.019 25.5301C163.505 31.9537 165.019 38.6394 169.893 37.9675C174.767 37.2957 181.155 32.9041 185.414 33.2154C189.673 33.5268 188.774 35.1982 187.244 38.0003C185.714 40.8024 188.458 45.5545 196.077 43.3423C203.695 41.1301 203.963 37.0171 209.468 38.5902C214.973 40.1633 209.957 53.1415 211.235 54.9768C212.512 56.8121 212.812 59.4012 215.683 54.9768C218.554 50.5524 222.875 44.5385 227.434 46.128C231.992 47.7175 223.175 56.8776 218.617 58.7785L214.042 60.6793C214.042 60.6793 212.213 73.9524 209.468 75.8533C209.468 75.8533 227.749 73.3297 234.705 66.6768C241.661 60.0238 235.62 60.1222 236.835 56.5663C238.049 53.0104 245.052 52.8301 245.052 48.5205C245.052 44.2108 244.138 44.8499 237.749 41.6873C231.361 38.5247 233.175 36.9516 234.09 35.3621C235.005 33.7726 235.92 30.9377 230.746 29.3482C225.573 27.7587 213.396 23.9734 215.635 20.4995C217.875 17.0255 219.042 10.0612 211.187 10.6675C203.332 11.2738 195.824 16.5831 191.361 16.0096C186.897 15.436 182.78 14.207 177.827 16.0915Z" fill="#263238"/>
<path d="M192.733 87.619H192.512L190.462 87.1438C185.146 85.9312 174.089 83.4241 168.19 79.0816C160.982 73.7724 162.291 60.5648 163.584 56.3535C164.878 52.1421 167.796 37.9022 167.827 37.6892C167.851 37.5641 167.9 37.4455 167.971 37.3411C168.041 37.2367 168.132 37.1488 168.237 37.0829C168.338 37.0126 168.452 36.9659 168.572 36.9461C168.692 36.9263 168.814 36.9338 168.931 36.9682C169.115 36.9857 169.3 36.9857 169.483 36.9682C169.577 36.9183 169.679 36.8851 169.783 36.8699C172.179 36.389 174.509 35.6077 176.723 34.543C179.878 33.1993 182.938 31.9211 185.477 32.1178C186.881 32.2325 188.632 32.4946 189.2 33.7564C189.768 35.0182 189.058 36.493 188.048 38.3446C187.821 38.8002 187.728 39.3153 187.781 39.8255C187.835 40.3356 188.032 40.8181 188.348 41.2123C189.61 42.851 192.418 43.3262 195.825 42.3266C198.136 41.657 200.322 40.5878 202.292 39.164C204.468 37.7056 206.172 36.5585 209.721 37.5253C214.106 38.8035 213.096 45.3089 212.371 50.0774C212.052 51.4831 211.925 52.9283 211.992 54.3707C212.229 54.7148 212.434 55.0917 212.639 55.4522C212.799 55.807 213.012 56.1333 213.27 56.419C213.886 55.8111 214.417 55.116 214.847 54.3543C217.418 50.4707 222.197 43.2442 227.655 45.1451C228.189 45.2883 228.663 45.6093 229.005 46.0592C229.347 46.509 229.538 47.0628 229.548 47.6358C229.658 51.3883 222.876 57.9102 218.869 59.5652L214.737 61.2858C214.185 63.5799 211.819 73.1825 210.194 76.2304L209.878 76.8531C208.869 78.9178 206.724 83.2438 202.67 85.4724C202.457 85.5884 202.207 85.6122 201.977 85.5386C201.747 85.4649 201.554 85.2998 201.44 85.0791C201.327 84.8548 201.304 84.5936 201.375 84.3516C201.446 84.1096 201.605 83.906 201.818 83.7846C205.383 81.8346 207.323 77.8854 208.254 75.9846L208.601 75.3127C210.273 72.1337 213.049 60.5648 213.08 60.3682C213.113 60.2223 213.178 60.0866 213.272 59.9725C213.365 59.8584 213.483 59.7693 213.617 59.7127L218.191 57.8119C221.708 56.3535 227.797 50.2577 227.655 47.685C227.655 47.4392 227.655 47.1442 227.008 46.9312C223.365 45.6694 219.705 50.2085 216.298 55.4358C214.894 57.5497 213.916 58.3362 212.97 58.3035C212.024 58.2707 211.393 57.2711 210.904 56.3862C210.73 56.0749 210.557 55.7472 210.352 55.4358C209.721 54.5182 209.942 52.8631 210.352 49.7661C210.983 45.7186 211.834 40.1799 209.027 39.3606C206.219 38.5413 205.146 39.3606 203.08 40.7043C201.034 42.2643 198.753 43.4605 196.329 44.2438C190.351 45.9808 187.749 43.5883 186.865 42.4741C186.329 41.7937 186 40.9634 185.918 40.0882C185.837 39.2131 186.007 38.3325 186.408 37.5581C186.96 36.5257 187.717 35.1329 187.528 34.7724C187.528 34.7724 187.244 34.3299 185.304 34.1825C183.364 34.035 180.225 35.264 177.417 36.4766C175.102 37.5583 172.68 38.3716 170.193 38.9018C169.951 38.9946 169.694 39.0391 169.436 39.0329C168.758 42.3102 166.423 53.3547 165.319 56.927C164.215 60.4993 162.953 72.8875 169.247 77.5413C174.83 81.6543 185.651 84.0959 190.84 85.2921L192.938 85.7673C193.055 85.7962 193.166 85.8488 193.263 85.9221C193.361 85.9955 193.443 86.088 193.506 86.1946C193.569 86.3012 193.612 86.4196 193.63 86.5431C193.649 86.6666 193.644 86.7928 193.616 86.9144C193.567 87.1179 193.453 87.2981 193.292 87.4259C193.132 87.5537 192.935 87.6218 192.733 87.619V87.619Z" fill="#263238"/>
<path d="M165.887 51.9289C165.738 51.9317 165.59 51.892 165.461 51.8142C163.377 50.5562 161.558 48.8747 160.114 46.87C158.669 44.8654 157.629 42.5789 157.054 40.147C156.58 38.7301 156.58 37.1887 157.054 35.7718C157.297 35.4039 157.633 35.1138 158.026 34.9343C158.419 34.7548 158.853 34.693 159.278 34.7558C160.855 34.9033 162.906 36.3945 164.357 39.9176C165.177 42.1265 166.236 44.2319 167.512 46.1936C167.66 46.3935 167.726 46.6466 167.695 46.897C167.664 47.1475 167.538 47.3748 167.346 47.5291C167.153 47.6834 166.91 47.752 166.669 47.7197C166.428 47.6874 166.209 47.557 166.06 47.3571C164.657 45.2791 163.498 43.0347 162.606 40.6714C161.376 37.6398 159.783 36.7058 159.026 36.6403C158.663 36.6403 158.537 36.7714 158.505 36.8205C157.985 38.0167 159.83 46.6525 166.265 50.1428C166.444 50.2431 166.585 50.402 166.667 50.5946C166.749 50.7872 166.767 51.0027 166.718 51.2071C166.669 51.4115 166.556 51.5933 166.397 51.7239C166.238 51.8546 166.042 51.9267 165.84 51.9289H165.887Z" fill="#263238"/>
<path d="M203.128 49.3071H202.654C202.261 49.2358 201.899 49.0401 201.616 48.7469C201.334 48.4536 201.146 48.077 201.077 47.6685C200.825 46.5542 198.553 44.9647 197.008 44.1945C196.898 44.1403 196.801 44.064 196.72 43.9702C196.639 43.8764 196.577 43.7668 196.538 43.6479C196.498 43.529 196.482 43.4031 196.489 43.2776C196.497 43.152 196.528 43.0292 196.582 42.9164C196.632 42.8034 196.704 42.7022 196.793 42.6185C196.882 42.5349 196.986 42.4705 197.099 42.4293C197.212 42.3881 197.332 42.3708 197.452 42.3784C197.572 42.3861 197.689 42.4186 197.796 42.474C198.553 42.8508 202.323 44.8664 202.86 47.2424C202.86 47.3899 202.86 47.3899 202.986 47.4063C203.185 47.413 203.383 47.3687 203.561 47.2772C203.74 47.1858 203.895 47.05 204.011 46.8819C204.112 46.7272 204.166 46.5445 204.166 46.3576C204.166 46.1706 204.112 45.9879 204.011 45.8332C202.812 43.5227 201.992 42.2282 200.983 41.9496C200.859 41.9261 200.741 41.8764 200.637 41.8036C200.532 41.7307 200.444 41.6363 200.376 41.5262C200.308 41.4161 200.263 41.2927 200.243 41.1637C200.224 41.0347 200.23 40.9029 200.261 40.7764C200.293 40.6499 200.349 40.5316 200.427 40.4287C200.504 40.3259 200.601 40.2407 200.712 40.1786C200.822 40.1165 200.944 40.0787 201.069 40.0676C201.195 40.0566 201.321 40.0724 201.44 40.1143C203.27 40.6059 204.374 42.5067 205.62 44.9483C205.884 45.4249 206.006 45.9725 205.969 46.5211C205.932 47.0698 205.74 47.5947 205.415 48.029C205.149 48.4049 204.805 48.7146 204.41 48.9357C204.014 49.1568 203.576 49.2836 203.128 49.3071V49.3071Z" fill="#263238"/>
<path d="M170.351 42.7035C170.251 42.7192 170.15 42.7192 170.051 42.7035C169.579 42.5958 169.141 42.3625 168.782 42.0264C168.422 41.6903 168.153 41.263 168.001 40.7863C167.928 40.308 167.958 39.819 168.089 39.3543C168.22 38.8897 168.448 38.4609 168.758 38.0989C168.931 37.9247 169.163 37.8273 169.404 37.8273C169.646 37.8273 169.878 37.9247 170.051 38.0989C170.218 38.2764 170.311 38.5145 170.311 38.7625C170.311 39.0105 170.218 39.2487 170.051 39.4262V39.4262C169.893 39.6228 169.625 40.098 169.704 40.3602C169.783 40.6224 169.941 40.6879 170.24 40.8354C171.92 40.0385 173.728 39.5718 175.572 39.4589C175.841 39.4483 176.101 39.3512 176.316 39.1811C176.531 39.0109 176.689 38.776 176.77 38.5085C177.008 37.9456 177.052 37.3152 176.897 36.7224C176.689 36.755 176.477 36.7126 176.296 36.6022C176.115 36.4918 175.977 36.3202 175.903 36.1161C175.819 35.8898 175.823 35.6384 175.914 35.4151C176.006 35.1919 176.177 35.0143 176.392 34.9199C176.679 34.7944 176.996 34.7601 177.302 34.8213C177.608 34.8826 177.889 35.0366 178.111 35.264C178.501 35.811 178.744 36.4565 178.813 37.1336C178.882 37.8107 178.776 38.4947 178.505 39.1148C178.305 39.7455 177.924 40.298 177.414 40.6989C176.904 41.0998 176.289 41.3303 175.651 41.3598C173.936 41.466 172.258 41.9226 170.714 42.7035C170.594 42.7316 170.47 42.7316 170.351 42.7035V42.7035Z" fill="#263238"/>
<path d="M172.638 48.3566C171.716 47.9609 170.767 47.6377 169.798 47.3898C169.378 47.273 168.951 47.18 168.521 47.1112C168.032 47.0129 167.511 46.9638 166.833 46.7671C167.192 46.1831 167.719 45.7322 168.34 45.479C168.96 45.2258 169.642 45.1834 170.287 45.3579C170.95 45.5038 171.544 45.8809 171.972 46.4264C172.399 46.972 172.634 47.6531 172.638 48.3566V48.3566Z" fill="#263238"/>
<path d="M189.279 50.9785C189.848 50.1799 190.659 49.6029 191.582 49.3398C192.511 49.0612 193.492 49.0274 194.437 49.2415C195.369 49.4647 196.235 49.9203 196.96 50.5688C197.689 51.1925 198.235 52.0155 198.538 52.9448C197.639 52.6171 196.96 52.2402 196.172 51.9616C195.477 51.6728 194.759 51.448 194.027 51.2898C193.303 51.1039 192.563 50.9941 191.818 50.9621C190.967 50.9621 190.162 50.9621 189.279 50.9785Z" fill="#263238"/>
<path d="M177.969 62.2689H177.795C176.177 61.9313 174.593 61.4376 173.063 60.7941C172.781 60.6678 172.529 60.477 172.327 60.2359C172.125 59.9948 171.978 59.7095 171.896 59.4013C171.75 58.2445 172.032 57.0731 172.685 56.124L177.196 46.8983L177.354 46.6689C177.652 46.3045 178.029 46.0181 178.454 45.8331C178.878 45.648 179.339 45.5695 179.799 45.6038C180.287 45.7082 180.749 45.9182 181.153 46.2203C181.558 46.5224 181.898 46.9098 182.149 47.3571C182.247 47.5476 182.286 47.7654 182.259 47.9798C182.259 47.9798 181.234 54.9605 181.123 57.8118C181.169 58.7787 180.913 59.7351 180.393 60.5383C179.872 61.3415 179.116 61.9486 178.237 62.2689H177.969ZM178.71 47.8487L174.215 57.0416C173.827 57.5688 173.617 58.2135 173.615 58.8769C173.615 58.8769 173.615 58.9916 173.789 59.0572C175.113 59.6202 176.486 60.0483 177.89 60.3353C178.333 60.0778 178.696 59.6943 178.936 59.2298C179.176 58.7654 179.284 58.2393 179.246 57.7135C179.357 55.0916 180.13 49.5202 180.351 48.029C180.146 47.7453 179.858 47.5384 179.53 47.4391C179.373 47.447 179.218 47.4889 179.077 47.5623C178.936 47.6356 178.811 47.7388 178.71 47.8651V47.8487Z" fill="#263238"/>
<path d="M166.833 50.9295C167.189 50.809 167.565 50.7672 167.937 50.8067C168.309 50.8462 168.669 50.9661 168.994 51.1589C169.997 51.732 170.798 52.6226 171.28 53.7013C171.763 54.78 171.901 55.9903 171.675 57.1564C171.171 58.5001 169.53 56.9761 167.164 56.0093C166.391 55.698 166.312 56.0093 165.587 55.7471L166.833 50.9295Z" fill="#263238"/>
<path d="M185.524 60.0895C185.256 61.7281 188.174 61.3349 191.597 61.9084C195.019 62.4819 197.622 63.8748 197.906 62.1706C198.19 60.4664 195.982 56.2714 192.575 55.6979C189.168 55.1244 185.792 58.3853 185.524 60.0895Z" fill="#263238"/>
<path d="M176.991 69.4298C179.057 68.7744 180.808 68.4466 182.48 67.9059C183.318 67.6563 184.14 67.3498 184.94 66.9882C185.776 66.6441 186.518 66.1525 187.559 65.6445C187.349 66.7727 186.796 67.801 185.981 68.5777C185.169 69.3441 184.198 69.9049 183.142 70.2164C182.119 70.5241 181.047 70.6188 179.988 70.495C178.918 70.4104 177.886 70.0438 176.991 69.4298V69.4298Z" fill="#263238"/>
<path d="M217.086 148.708C217.086 157.786 213.427 165.094 200.319 165.094C191.076 165.094 185.508 157.753 185.508 148.708C185.508 139.662 189.231 132.321 200.319 132.321C211.408 132.321 217.086 139.646 217.086 148.708Z" fill="#E8E8E8"/>
<path d="M198.742 150.757H198.443C197.938 150.757 196.976 150.757 196.692 149.855C196.408 148.954 197.055 148.528 197.496 148.217C197.72 148.03 197.926 147.822 198.112 147.594L197.97 147.496C196.787 146.644 188.868 146.906 181.897 147.659C181.777 147.675 181.656 147.666 181.54 147.633C181.424 147.599 181.316 147.541 181.222 147.464C181.128 147.386 181.049 147.289 180.992 147.179C180.935 147.069 180.899 146.948 180.887 146.824C180.865 146.572 180.938 146.322 181.092 146.126C181.245 145.93 181.466 145.804 181.707 145.775C184.184 145.513 196.676 144.251 199.058 145.939C199.333 146.109 199.562 146.348 199.725 146.635C199.887 146.921 199.978 147.245 199.989 147.578C199.995 147.836 199.953 148.094 199.864 148.336C199.774 148.578 199.64 148.799 199.468 148.987C200.225 148.987 201.266 148.807 202.465 148.659C207.749 148.004 216.661 146.906 224.39 149.052C224.618 149.123 224.81 149.284 224.926 149.5C225.042 149.716 225.072 149.97 225.01 150.209C224.949 150.447 224.8 150.652 224.596 150.779C224.392 150.905 224.148 150.944 223.916 150.888C216.456 148.839 207.844 149.904 202.686 150.544C200.888 150.576 199.578 150.757 198.742 150.757Z" fill="#263238"/>
<path d="M71.232 39.8521C71.0536 39.8535 70.8789 39.7997 70.73 39.6976C70.5811 39.5954 70.4649 39.4496 70.396 39.2786C69.7263 36.9574 69.4175 34.54 69.4812 32.1177L67.3202 24.2194C67.282 24.0646 67.2813 23.9025 67.3181 23.7474C67.355 23.5923 67.4282 23.4491 67.5313 23.3306C67.6344 23.2121 67.7642 23.122 67.909 23.0684C68.0539 23.0147 68.2092 22.9992 68.3613 23.0232L75.9955 24.416C76.3741 24.416 78.2037 25.0387 78.535 29.332C78.6866 31.1513 79.2839 32.9001 80.27 34.4118C80.3347 34.5173 80.3779 34.6354 80.397 34.7589C80.4161 34.8823 80.4107 35.0086 80.3812 35.1298C80.3516 35.251 80.2986 35.3647 80.2252 35.4639C80.1518 35.563 80.0597 35.6455 79.9546 35.7064C79.8524 35.7712 79.7388 35.8142 79.6204 35.8328C79.502 35.8514 79.3813 35.8453 79.2652 35.8148C79.1491 35.7842 79.0401 35.7299 78.9445 35.655C78.8489 35.5801 78.7687 35.4862 78.7085 35.3786C77.5741 33.6258 76.89 31.6007 76.7211 29.4958C76.5002 26.661 75.6169 26.2185 75.6012 26.2185L69.4812 25.1042L71.2793 31.6589C71.2869 31.7516 71.2869 31.8448 71.2793 31.9374C71.2089 34.1496 71.4642 36.36 72.0364 38.4921C72.1317 38.7225 72.1354 38.9827 72.0467 39.216C71.9581 39.4493 71.7843 39.6367 71.5632 39.7374C71.4603 39.796 71.3481 39.8349 71.232 39.8521V39.8521Z" fill="#263238"/>
<path d="M104.734 57.566C104.567 57.5734 104.402 57.5277 104.261 57.4349C102.179 56.1568 83.8504 44.719 81.3898 39.9996C81.3081 39.8527 81.2651 39.6859 81.2651 39.5162C81.2651 39.3465 81.3081 39.1798 81.3898 39.0328C81.9007 38.0739 82.2073 37.0121 82.2889 35.9194C82.2992 35.7946 82.3332 35.6731 82.3887 35.5619C82.4443 35.4507 82.5203 35.352 82.6126 35.2713C82.7049 35.1907 82.8115 35.1297 82.9265 35.0919C83.0415 35.0541 83.1625 35.0401 83.2826 35.0509C83.4027 35.0616 83.5197 35.0969 83.6267 35.1546C83.7337 35.2123 83.8288 35.2913 83.9064 35.3872C83.984 35.4831 84.0427 35.5939 84.0791 35.7133C84.1155 35.8327 84.1289 35.9584 84.1186 36.0832C84.0102 37.27 83.7061 38.4285 83.2195 39.508C85.9009 43.3916 99.8287 52.5026 105.16 55.8946C105.265 55.9554 105.357 56.0379 105.431 56.1371C105.504 56.2362 105.557 56.3499 105.587 56.4711C105.616 56.5924 105.622 56.7186 105.602 56.8421C105.583 56.9655 105.54 57.0836 105.475 57.1891C105.389 57.3079 105.277 57.4039 105.148 57.4694C105.019 57.5348 104.878 57.5679 104.734 57.566Z" fill="#263238"/>
<path d="M197.512 382.429C197.512 382.429 196.645 368.566 195.935 367.895C195.225 367.223 186.155 368.501 184.294 367.534C182.433 366.567 181.408 371.86 180.209 372.45C179.01 373.04 176.486 370.516 178.206 367.223C179.925 363.929 172.859 358.013 171.092 358.161C169.325 358.308 158.063 363.077 149.357 363.634C140.65 364.191 133.725 362.487 131.328 363.798C128.93 365.109 126.706 366.584 130.05 370.582C133.394 374.58 141.091 382.495 151.312 382.593C161.533 382.692 163.931 380.955 165.193 379.414C166.455 377.874 168.347 375.072 169.72 377.939C171.092 380.807 171.124 384.691 173.505 385.428C175.887 386.166 192.197 390.098 197.512 382.429Z" fill="#263238"/>
<path d="M182.275 396.555C179.887 396.574 177.505 396.305 175.177 395.752C171.894 394.803 168.873 393.063 166.36 390.672C165.761 390.164 165.161 389.656 164.562 389.197C163.426 388.329 160.682 388.64 157.527 389.001C153.347 389.645 149.101 389.689 144.909 389.132C137.038 387.519 129.861 383.36 124.403 377.251C121.485 373.499 122.684 370.205 124.151 367.141C124.491 366.194 125.134 365.397 125.973 364.883C126.812 364.37 127.794 364.172 128.757 364.322C128.967 364.403 129.142 364.561 129.247 364.766C129.353 364.972 129.382 365.21 129.33 365.437C129.277 365.663 129.146 365.862 128.962 365.995C128.778 366.127 128.553 366.185 128.331 366.158C128.173 366.158 126.754 365.895 125.776 367.993C124.435 370.795 123.583 373.171 125.776 376.055C130.97 381.796 137.756 385.714 145.192 387.264C149.218 387.779 153.293 387.73 157.306 387.116C160.981 386.69 163.899 386.362 165.603 387.673C166.234 388.148 166.849 388.673 167.48 389.197C169.784 391.415 172.563 393.033 175.587 393.917C180.54 395.195 188.632 394.932 193.585 392.278C198.175 389.82 198.916 387.526 196.739 382.856C196.696 382.65 196.719 382.436 196.805 382.245C196.892 382.055 197.037 381.9 197.217 381.804C197.397 381.709 197.603 381.678 197.802 381.717C198.001 381.756 198.182 381.863 198.317 382.02C200.998 387.591 199.894 391.049 194.436 393.949C190.626 395.766 186.467 396.657 182.275 396.555V396.555Z" fill="#263238"/>
<path d="M174.372 364.699C174.204 364.7 174.039 364.651 173.897 364.559C173.754 364.466 173.64 364.332 173.568 364.175C173.513 364.067 173.48 363.949 173.469 363.828C173.459 363.707 173.472 363.586 173.507 363.47C173.542 363.354 173.599 363.246 173.675 363.154C173.75 363.061 173.843 362.985 173.947 362.929C174.073 362.831 178.19 359.914 182.685 340.709C182.7 340.576 182.743 340.448 182.809 340.333C182.876 340.218 182.965 340.119 183.071 340.042C183.177 339.965 183.298 339.913 183.425 339.888C183.552 339.864 183.682 339.867 183.808 339.899C183.933 339.93 184.051 339.989 184.153 340.071C184.255 340.153 184.339 340.257 184.4 340.375C184.461 340.493 184.497 340.624 184.506 340.757C184.515 340.891 184.496 341.026 184.452 341.151C179.72 361.536 175.272 364.355 174.783 364.601C174.655 364.666 174.515 364.7 174.372 364.699V364.699Z" fill="#263238"/>
<path d="M192.906 371.319C192.676 371.32 192.454 371.228 192.287 371.063C192.119 370.899 192.019 370.674 192.007 370.435C191.566 363.29 200.651 343.495 201.045 342.659C201.179 342.505 201.358 342.4 201.555 342.362C201.752 342.323 201.955 342.353 202.134 342.446C202.313 342.539 202.458 342.69 202.546 342.877C202.634 343.063 202.661 343.275 202.623 343.479C202.528 343.675 193.364 363.667 193.758 370.304C193.767 370.428 193.751 370.554 193.713 370.673C193.675 370.791 193.615 370.901 193.535 370.995C193.456 371.09 193.36 371.167 193.252 371.223C193.144 371.278 193.027 371.311 192.906 371.319V371.319Z" fill="#263238"/>
<path d="M200.036 344.117C194.042 344.117 183.269 340.84 178.111 337.678C172.717 334.4 174.357 322.307 175.793 311.623C175.966 310.312 176.14 309.017 176.297 307.788C176.928 302.709 176.77 292.942 176.597 283.487C176.408 272.328 176.234 261.775 177.228 257.4C179.058 249.207 194.91 219.055 195.588 217.777C195.642 217.666 195.718 217.568 195.811 217.488C195.903 217.408 196.01 217.349 196.125 217.314C196.24 217.278 196.361 217.268 196.48 217.283C196.599 217.298 196.714 217.338 196.818 217.4C196.924 217.459 197.017 217.538 197.092 217.634C197.168 217.73 197.224 217.841 197.258 217.96C197.291 218.079 197.302 218.204 197.289 218.327C197.276 218.451 197.239 218.57 197.181 218.678C197.023 218.99 180.777 249.977 178.995 257.826C178.064 261.972 178.253 272.901 178.427 283.454C178.584 292.975 178.758 302.823 178.111 308.034C177.953 309.28 177.78 310.574 177.591 311.885C176.313 321.471 174.704 333.417 179.026 336.039C184.405 339.316 197.039 342.97 201.692 342.086C203.979 341.659 211.74 339.333 216.077 327.502C219.611 317.883 220.588 286.06 220.588 282.75C219.974 280.822 219.098 278.996 217.986 277.326C215.793 273.491 214.831 271.607 215.715 270.542C216.598 269.477 217.749 270.28 218.222 270.542C220.204 271.576 222.054 272.864 223.727 274.376L224.8 275.245C224.8 275.245 224.8 275.065 224.8 274.966C224.406 273.475 223.964 272.148 223.601 271.083C222.844 268.772 222.418 267.494 223.128 266.642C223.364 266.405 223.657 266.238 223.976 266.16C224.295 266.082 224.629 266.096 224.942 266.199C227.339 266.691 228.649 266.511 229.674 265.511C230.904 264.135 252.561 227.822 254.091 219.957C255.826 211.239 255.668 201.538 253.76 198.359C251.52 194.639 248.807 190.87 248.775 190.838C248.631 190.635 248.57 190.382 248.606 190.133C248.641 189.885 248.77 189.661 248.964 189.51C249.059 189.433 249.168 189.377 249.284 189.344C249.4 189.311 249.521 189.303 249.64 189.32C249.759 189.337 249.874 189.378 249.977 189.442C250.081 189.506 250.171 189.59 250.242 189.691C250.242 189.691 253.034 193.558 255.305 197.343C257.813 201.522 257.482 212.304 255.889 220.284C254.296 228.265 232.182 265.462 230.825 266.871C229.059 268.707 226.772 268.51 224.516 268.084C224.702 268.896 224.94 269.696 225.226 270.476C225.589 271.574 226.046 272.934 226.456 274.491C226.772 275.72 227.008 276.965 226.172 277.523C225.336 278.08 224.295 277.342 222.544 275.884C220.984 274.473 219.263 273.268 217.418 272.295H217.323C217.966 273.736 218.699 275.132 219.516 276.474C221.282 279.587 222.371 281.57 222.371 282.865C222.371 283.192 221.661 317.604 217.749 328.288C213.017 341.053 204.5 343.593 201.976 344.068C201.332 344.146 200.683 344.162 200.036 344.117V344.117Z" fill="#263238"/>
<path d="M283.003 314.212C282.198 314.212 281.425 314.212 280.81 314.114C277.025 313.819 263.87 309.329 252.261 305.38C245.289 303.004 238.711 300.759 235.431 299.857C229.733 298.134 224.644 294.716 220.793 290.026C220.702 289.931 220.631 289.818 220.584 289.693C220.538 289.568 220.518 289.434 220.525 289.3C220.532 289.167 220.566 289.036 220.625 288.917C220.684 288.798 220.766 288.693 220.867 288.61C220.967 288.526 221.084 288.465 221.209 288.432C221.333 288.398 221.464 288.392 221.591 288.415C221.718 288.437 221.839 288.487 221.946 288.561C222.053 288.635 222.144 288.732 222.213 288.846C225.844 293.184 230.586 296.36 235.888 298.006C239.232 298.923 245.841 301.168 252.828 303.561C263.775 307.281 277.387 311.934 280.952 312.213C286.283 312.639 295.321 311.459 298.303 306.478C301.284 301.496 301.757 289.354 300.937 286.371L300.826 285.962C299.848 282.373 297.561 273.934 290.101 271.361C280.763 268.084 264.469 263.479 262.734 263.791C262.371 263.791 261.977 264.807 261.74 265.347C261.378 266.199 260.999 267.068 260.163 267.084C259.327 267.101 258.775 266.085 258.586 265.659C258.254 264.97 257.923 264.168 257.592 263.332C257.087 262.07 256.015 259.448 255.431 259.301C254.679 260.021 253.997 260.817 253.396 261.677C251.945 263.61 250.967 264.954 249.863 264.479C248.759 264.004 248.885 262.84 248.885 262.381C248.917 261.234 249.054 260.093 249.295 258.973C249.8 256.318 249.816 255.401 248.112 254.729C244.074 253.09 243.175 246.192 243.175 243.652C243.175 243.4 243.272 243.158 243.443 242.98C243.615 242.801 243.847 242.701 244.09 242.701C244.333 242.701 244.565 242.801 244.737 242.98C244.909 243.158 245.005 243.4 245.005 243.652C245.005 245.29 245.652 251.747 248.759 252.959C251.866 254.172 251.535 256.941 251.093 259.334C250.925 260.275 250.825 261.228 250.794 262.185C251.188 261.726 251.661 261.087 252.024 260.546C252.695 259.56 253.473 258.659 254.343 257.859C254.563 257.679 254.819 257.554 255.092 257.491C255.365 257.429 255.648 257.431 255.92 257.498C257.371 257.908 258.254 260.104 259.28 262.627C259.564 263.332 259.848 264.036 260.116 264.643C260.542 263.66 261.125 262.332 262.355 262.005C264.69 261.415 284.58 267.494 290.747 269.624C299.107 272.525 301.678 281.963 302.64 285.519L302.751 285.913C303.697 289.321 303.35 301.939 299.911 307.559C296.646 312.852 288.365 314.212 283.003 314.212Z" fill="#263238"/>
<path d="M404.914 376.219C404.593 376.243 404.272 376.243 403.951 376.219C403.711 376.182 403.494 376.047 403.349 375.844C403.204 375.642 403.143 375.387 403.179 375.137C403.214 374.887 403.344 374.662 403.539 374.512C403.734 374.361 403.979 374.297 404.22 374.334C404.346 374.334 415.261 375.711 424.867 356.604C433.148 340.218 433.542 335.302 433.416 334.056C433.116 334.286 432.722 334.663 432.359 335.007C431.423 336.001 430.323 336.811 429.11 337.399C427.296 338.153 407.721 355.424 403.715 373.613C403.689 373.734 403.64 373.849 403.571 373.95C403.502 374.051 403.414 374.137 403.313 374.203C403.212 374.268 403.099 374.312 402.981 374.332C402.863 374.352 402.743 374.347 402.627 374.318C402.509 374.293 402.397 374.243 402.298 374.172C402.198 374.102 402.114 374.011 402.049 373.905C401.984 373.8 401.941 373.682 401.921 373.559C401.901 373.435 401.905 373.309 401.933 373.187C406.128 354.146 426.286 336.531 428.431 335.629C429.437 335.134 430.346 334.451 431.113 333.614C431.725 332.856 432.528 332.288 433.432 331.975C433.692 331.917 433.962 331.94 434.21 332.042C434.457 332.145 434.669 332.321 434.82 332.549C436.996 335.564 430.529 349.443 426.476 357.44C417.721 374.744 407.974 376.219 404.914 376.219Z" fill="#263238"/>
<path d="M406.302 373.99C406.169 373.989 406.038 373.957 405.918 373.898C405.799 373.838 405.693 373.752 405.608 373.646C405.53 373.551 405.471 373.44 405.434 373.32C405.397 373.201 405.384 373.075 405.394 372.95C405.404 372.826 405.438 372.704 405.494 372.593C405.549 372.482 405.626 372.383 405.718 372.302C405.844 372.204 418.195 361.307 423.542 349.509C423.651 349.293 423.837 349.128 424.06 349.05C424.282 348.972 424.526 348.986 424.739 349.09C424.952 349.193 425.118 349.378 425.204 349.605C425.29 349.833 425.287 350.086 425.198 350.312C419.678 362.503 407.422 373.253 406.901 373.761C406.734 373.908 406.521 373.99 406.302 373.99V373.99Z" fill="#263238"/>
<path d="M404.141 351.098H404.062C403.943 351.09 403.826 351.057 403.719 351.001C403.612 350.945 403.516 350.868 403.438 350.773C403.36 350.678 403.302 350.569 403.265 350.45C403.229 350.331 403.216 350.206 403.226 350.082C404.472 334.499 411.791 318.423 424.978 302.332C425.53 301.644 425.908 301.185 426.066 300.955C426.384 300.426 426.673 299.879 426.933 299.317C428.006 297.219 428.874 295.581 430.088 295.941C431.303 296.302 431.665 297.58 431.334 304.134C430.672 317.244 422.075 342.61 421.712 343.675C421.683 343.804 421.627 343.925 421.549 344.03C421.471 344.136 421.373 344.223 421.261 344.287C421.149 344.35 421.025 344.389 420.898 344.4C420.771 344.41 420.643 344.393 420.522 344.35C420.401 344.306 420.291 344.237 420.198 344.146C420.104 344.055 420.03 343.945 419.981 343.823C419.931 343.701 419.906 343.569 419.908 343.436C419.911 343.304 419.939 343.173 419.993 343.052C420.088 342.79 428.874 316.916 429.457 304.036C429.601 302.155 429.601 300.264 429.457 298.383C429.126 298.923 428.732 299.694 428.479 300.185C428.227 300.677 427.785 301.545 427.501 301.971C427.217 302.397 426.902 302.741 426.287 303.495C413.353 319.292 406.192 334.99 404.977 350.164C404.974 350.4 404.887 350.626 404.732 350.798C404.578 350.971 404.367 351.078 404.141 351.098V351.098Z" fill="#263238"/>
<path d="M404.598 360.504H404.346C404.114 360.432 403.919 360.267 403.804 360.046C403.688 359.825 403.662 359.565 403.731 359.324C409.046 340.414 421.444 316.719 421.57 316.424C421.626 316.315 421.703 316.218 421.796 316.14C421.888 316.061 421.995 316.003 422.109 315.968C422.224 315.933 422.344 315.922 422.463 315.935C422.581 315.949 422.696 315.987 422.801 316.047C422.906 316.106 422.999 316.185 423.075 316.282C423.15 316.378 423.206 316.488 423.24 316.607C423.274 316.726 423.284 316.851 423.271 316.975C423.258 317.098 423.221 317.217 423.163 317.326C423.037 317.571 410.75 341.152 405.482 359.931C405.41 360.11 405.286 360.261 405.128 360.364C404.97 360.467 404.785 360.516 404.598 360.504V360.504Z" fill="#263238"/>
<path d="M399.062 374.302C398.826 374.303 398.6 374.209 398.431 374.04C397.8 373.417 383.036 358.39 384.755 339.628C386.254 323.241 390.087 307.822 393.115 305.806C393.317 305.654 393.552 305.554 393.798 305.514C394.045 305.474 394.298 305.495 394.535 305.577C396.349 306.232 396.727 309.001 397.2 312.524C397.459 315.324 398.063 318.078 398.999 320.718C401.538 326.928 407.674 355.375 404.377 370.779C404.312 371.01 404.165 371.206 403.965 371.329C403.765 371.452 403.528 371.491 403.302 371.439C403.076 371.387 402.877 371.247 402.745 371.049C402.614 370.85 402.56 370.607 402.595 370.369C405.75 355.343 399.803 327.535 397.311 321.455C396.32 318.678 395.674 315.782 395.387 312.836C395.087 310.656 394.724 307.92 394.046 307.477C392.342 308.592 388.241 321.635 386.569 339.857C384.992 357.653 399.551 372.516 399.693 372.63C399.834 372.757 399.933 372.927 399.977 373.116C400.021 373.304 400.008 373.503 399.938 373.683C399.869 373.863 399.747 374.016 399.59 374.121C399.433 374.226 399.248 374.278 399.062 374.269V374.302Z" fill="#263238"/>
<path d="M400.324 372.057C400.148 372.055 399.976 372.002 399.828 371.904C399.68 371.805 399.562 371.665 399.488 371.5C391.601 353.376 390.324 327.928 390.324 327.682C390.315 327.558 390.33 327.433 390.369 327.316C390.407 327.198 390.468 327.089 390.547 326.996C390.626 326.903 390.723 326.827 390.831 326.773C390.939 326.719 391.056 326.689 391.175 326.682V326.682C391.411 326.678 391.639 326.77 391.81 326.938C391.981 327.107 392.082 327.339 392.09 327.584C392.09 327.829 393.431 352.934 401.112 370.729C401.209 370.958 401.215 371.216 401.129 371.449C401.044 371.682 400.873 371.871 400.655 371.975C400.551 372.026 400.439 372.054 400.324 372.057V372.057Z" fill="#263238"/>
<path d="M399.251 325.158C399.019 325.159 398.795 325.068 398.625 324.904C398.456 324.739 398.352 324.514 398.336 324.273C396.932 299.268 406.917 277.686 411.712 267.33C412.591 265.541 413.375 263.703 414.062 261.824C415.119 258.137 416.475 257.515 417.406 257.646C418.778 257.826 420.639 259.563 420.971 272.263C421.397 288.289 416.901 316.31 416.87 316.506C416.85 316.63 416.807 316.748 416.743 316.855C416.679 316.961 416.596 317.054 416.498 317.127C416.4 317.2 416.289 317.252 416.171 317.281C416.054 317.309 415.932 317.313 415.813 317.293C415.694 317.272 415.58 317.228 415.477 317.162C415.375 317.095 415.286 317.009 415.215 316.907C415.145 316.805 415.095 316.689 415.067 316.567C415.04 316.445 415.036 316.319 415.056 316.195C415.056 315.916 419.551 288.059 419.141 272.23C418.841 260.415 417.154 259.448 417.138 259.432C416.478 260.256 416.024 261.234 415.813 262.283C415.105 264.261 414.283 266.192 413.352 268.068C408.62 278.293 398.794 299.563 400.166 324.077C400.172 324.202 400.155 324.327 400.115 324.444C400.074 324.562 400.012 324.671 399.932 324.764C399.851 324.856 399.754 324.932 399.645 324.986C399.536 325.039 399.418 325.07 399.298 325.076L399.251 325.158Z" fill="#263238"/>
<path d="M403.794 347.051C403.568 347.049 403.35 346.961 403.182 346.804C403.014 346.647 402.906 346.432 402.879 346.199C402.579 343.364 403.557 339.038 405.356 331.172C406.255 327.207 407.359 322.275 408.621 316.179C411.257 302.089 413.199 287.869 414.441 273.574C414.469 273.325 414.587 273.096 414.772 272.934C414.956 272.773 415.194 272.691 415.435 272.705C415.554 272.715 415.671 272.75 415.777 272.808C415.884 272.866 415.978 272.945 416.054 273.042C416.131 273.138 416.188 273.249 416.222 273.368C416.257 273.488 416.268 273.614 416.255 273.738C415.01 288.109 413.063 302.406 410.419 316.572C409.141 322.684 408.021 327.617 407.122 331.582C405.387 339.251 404.425 343.462 404.693 345.986C404.72 346.236 404.65 346.486 404.499 346.683C404.348 346.879 404.129 347.006 403.889 347.035L403.794 347.051Z" fill="#263238"/>
<path d="M417.864 380.971C417.667 380.97 417.475 380.905 417.317 380.784C417.158 380.664 417.04 380.494 416.98 380.299C416.912 380.058 416.938 379.798 417.053 379.577C417.169 379.356 417.363 379.192 417.595 379.119L419.457 378.513C419.367 378.463 419.282 378.402 419.204 378.333C419.026 378.162 418.896 377.943 418.829 377.7C418.762 377.457 418.761 377.2 418.826 376.956C419.138 375.978 419.601 375.06 420.198 374.236L420.403 373.925C416.98 375.269 412.233 376.727 408.967 375.252C408.857 375.204 408.756 375.133 408.671 375.044C408.587 374.956 408.52 374.85 408.474 374.735C408.429 374.619 408.406 374.495 408.407 374.37C408.407 374.245 408.432 374.122 408.479 374.007C408.579 373.776 408.762 373.595 408.989 373.503C409.216 373.411 409.469 373.416 409.693 373.515C412.848 374.924 418.305 372.729 420.119 372.008C420.766 371.745 421.949 371.27 422.58 372.106C423.211 372.942 422.58 373.925 421.728 375.285C421.428 375.744 421.097 376.268 420.86 376.727C421.381 376.596 422.091 376.366 422.659 376.186C424.18 375.606 425.773 375.253 427.391 375.137V375.137C428.4 375.137 428.7 375.645 428.747 376.072C428.873 376.956 428.968 377.53 418.147 380.987L417.864 380.971Z" fill="#263238"/>
<path d="M396.065 373.744C395.916 373.747 395.768 373.708 395.639 373.63C393.147 372.213 390.881 370.406 388.92 368.271C387.421 366.633 386.317 366.19 385.765 366.338C385.663 366.381 385.575 366.453 385.511 366.546C385.447 366.638 385.409 366.748 385.402 366.862C385.376 367.108 385.286 367.341 385.141 367.538C384.997 367.734 384.803 367.886 384.582 367.976C383.715 368.321 382.863 367.6 381.869 366.764L381.617 366.567C381.617 366.682 381.617 366.797 381.617 366.895C381.774 368.812 382.027 371.696 380.039 372.647C379.93 372.698 379.811 372.727 379.691 372.731C379.57 372.735 379.45 372.714 379.337 372.67C379.225 372.626 379.121 372.559 379.033 372.474C378.945 372.388 378.875 372.285 378.825 372.171C378.775 372.057 378.748 371.934 378.744 371.809C378.74 371.684 378.76 371.559 378.802 371.442C378.845 371.325 378.909 371.218 378.991 371.126C379.074 371.035 379.173 370.961 379.282 370.91C380.087 370.533 379.897 368.353 379.787 367.059C379.677 365.764 379.598 364.716 380.355 364.273C381.112 363.831 382.011 364.486 382.989 365.289L383.746 365.912C383.878 365.579 384.079 365.282 384.336 365.041C384.592 364.8 384.897 364.621 385.229 364.519C386.033 364.273 387.737 364.273 390.166 366.977C391.99 368.928 394.085 370.585 396.38 371.893C396.489 371.95 396.586 372.029 396.664 372.125C396.743 372.222 396.803 372.333 396.839 372.454C396.876 372.575 396.889 372.702 396.878 372.827C396.867 372.953 396.832 373.076 396.775 373.187C396.711 373.334 396.612 373.462 396.488 373.56C396.364 373.657 396.219 373.721 396.065 373.744V373.744Z" fill="#263238"/>
<path d="M79.6859 372.581C78.0557 372.58 76.4273 372.465 74.812 372.237C67.651 371.237 57.2091 367.321 48.1868 354.802C33.2181 333.942 32.6345 316.965 32.4136 309.706C32.4136 308.608 32.4136 307.756 32.2717 307.133C31.8774 303.856 32.2717 299.989 34.1172 299.186C34.5903 298.956 35.5525 298.792 36.5778 300.087C37.2419 301.049 37.6351 302.183 37.7134 303.364C38.0447 305.462 38.4232 307.854 42.8871 310.558C52.2248 316.178 83.3295 336.924 91.9417 367.731C91.9879 367.854 92.0088 367.985 92.0033 368.117C91.9977 368.249 91.9657 368.379 91.9093 368.497C91.853 368.615 91.7735 368.72 91.6759 368.805C91.5784 368.89 91.4649 368.952 91.3427 368.989C91.2205 369.026 91.0924 369.035 90.9664 369.018C90.8404 369 90.7193 368.955 90.611 368.886C90.5026 368.817 90.4092 368.725 90.3369 368.616C90.2646 368.508 90.2148 368.385 90.1909 368.255C81.768 338.136 51.1522 317.735 41.9722 312.197C36.7513 309.05 36.2623 305.937 35.9153 303.676C35.8676 302.846 35.612 302.044 35.174 301.349C35.0684 301.191 34.9277 301.061 34.7639 300.972C34.4642 301.168 33.644 303.299 34.0856 306.953C34.0856 307.608 34.196 308.592 34.2433 309.689C34.4799 316.768 35.0478 333.335 49.6695 353.72C58.2817 365.748 68.1873 369.418 74.9855 370.402C79.2823 371.06 83.6636 370.792 87.8564 369.615C88.0865 369.537 88.3369 369.558 88.5526 369.671C88.7684 369.785 88.9321 369.983 89.0079 370.221C89.0471 370.34 89.063 370.465 89.0548 370.59C89.0465 370.714 89.0142 370.836 88.9598 370.948C88.9053 371.059 88.8299 371.158 88.7379 371.239C88.6459 371.32 88.5393 371.38 88.4243 371.418C85.5834 372.255 82.6382 372.647 79.6859 372.581V372.581Z" fill="#263238"/>
<path d="M88.3301 369.238H88.1724C87.5888 369.124 73.6453 366.534 58.6134 352.606C49.2986 343.649 42.5234 332.213 39.0231 319.538C38.9952 319.416 38.9905 319.29 39.0095 319.167C39.0284 319.043 39.0706 318.925 39.1336 318.818C39.1966 318.712 39.2791 318.619 39.3765 318.546C39.474 318.473 39.5843 318.42 39.7014 318.391C39.8184 318.362 39.9398 318.357 40.0586 318.377C40.1775 318.396 40.2914 318.44 40.3939 318.506C40.4964 318.571 40.5856 318.657 40.6562 318.758C40.7268 318.859 40.7775 318.974 40.8055 319.095C44.1998 331.407 50.7792 342.516 59.828 351.213C74.434 364.765 88.3459 367.37 88.4879 367.387C88.7241 367.434 88.9333 367.576 89.0716 367.78C89.2098 367.985 89.2663 368.237 89.2292 368.484C89.1885 368.7 89.076 368.893 88.9116 369.031C88.7472 369.169 88.5414 369.242 88.3301 369.238V369.238Z" fill="#263238"/>
<path d="M97.2579 368.91C97.0195 368.932 96.7825 368.855 96.5991 368.695C96.4157 368.535 96.3009 368.306 96.28 368.058C96.2591 367.811 96.3337 367.564 96.4876 367.374C96.6414 367.183 96.8618 367.064 97.1002 367.042C97.2737 367.042 114.451 363.29 115.097 330.205C115.886 293.713 108.788 276.228 104.387 271.656C103.473 270.689 102.668 270.231 102.274 270.395C100.586 271.083 100.444 279.129 100.365 283.93C100.239 290.353 97.2106 296.531 93.1411 305.101C91.7373 308.018 90.16 311.328 88.5038 314.933C82.3365 328.714 85.6489 352.491 85.6804 352.721C85.7137 352.85 85.7202 352.985 85.6997 353.117C85.6792 353.249 85.632 353.375 85.5613 353.487C85.4906 353.599 85.398 353.694 85.2894 353.766C85.1809 353.839 85.0589 353.886 84.9315 353.906C84.804 353.926 84.674 353.917 84.55 353.881C84.4259 353.845 84.3106 353.782 84.2115 353.696C84.1124 353.611 84.0319 353.504 83.9752 353.384C83.9184 353.264 83.8868 353.133 83.8823 352.999C83.7403 352.016 80.4437 328.419 86.8476 314.13C88.4249 310.443 90.1127 307.133 91.5796 304.2C95.586 295.859 98.4882 289.845 98.5987 283.848C98.7406 275.327 99.0403 269.657 101.659 268.576C103.441 267.838 105.176 269.673 105.744 270.214C111.848 276.621 117.684 297.645 116.99 330.14C116.233 364.879 98.2516 368.648 97.4945 368.796L97.2579 368.91Z" fill="#263238"/>
<path d="M75.9477 377.366C70.569 377.17 70.3798 376.186 70.2851 375.728C70.1905 375.269 70.569 374.482 71.4997 374.089C72.8051 373.483 74.2429 373.251 75.6638 373.417C76.7248 373.536 77.798 373.43 78.8184 373.106C81.2317 372.336 81.6103 371.385 81.6103 371.385C81.638 371.266 81.6882 371.153 81.758 371.053C81.8277 370.954 81.9157 370.87 82.0168 370.806C82.118 370.742 82.2302 370.7 82.3472 370.681C82.4642 370.662 82.5836 370.668 82.6986 370.697C82.9342 370.763 83.1363 370.92 83.2626 371.137C83.389 371.354 83.4299 371.613 83.3769 371.86C83.3769 372.172 82.7933 373.827 79.3547 374.925C78.1138 375.313 76.8119 375.447 75.5218 375.318C74.8463 375.228 74.1626 375.228 73.4871 375.318C74.2284 375.416 75.0644 375.482 75.9635 375.514C76.2061 375.514 76.4388 375.615 76.6104 375.793C76.7819 375.971 76.8783 376.213 76.8783 376.465C76.8783 376.717 76.7819 376.959 76.6104 377.137C76.4388 377.315 76.2061 377.415 75.9635 377.415L75.9477 377.366Z" fill="#263238"/>
<path d="M103.599 371.975C103.475 371.975 103.352 371.949 103.238 371.898C103.124 371.847 103.022 371.773 102.936 371.68C102.765 371.502 102.668 371.26 102.668 371.008C102.668 370.756 102.765 370.515 102.936 370.336C103.514 369.787 104.042 369.183 104.513 368.534L104.419 368.632C103.772 369.435 102.841 370.631 101.532 369.959C101.019 369.639 100.573 369.217 100.218 368.716C99.8634 368.215 99.6078 367.647 99.466 367.043C99.4095 366.797 99.4493 366.538 99.5765 366.323C99.7037 366.108 99.9079 365.954 100.144 365.896C100.381 365.837 100.63 365.878 100.837 366.01C101.044 366.142 101.192 366.355 101.248 366.6C101.419 367.273 101.824 367.857 102.384 368.239C102.574 367.929 102.79 367.639 103.031 367.37C103.693 366.567 104.813 365.207 106.185 366.158C106.38 366.297 106.542 366.479 106.659 366.692C106.776 366.905 106.846 367.142 106.864 367.387C106.958 368.911 105.065 370.91 104.245 371.696C104.07 371.869 103.84 371.968 103.599 371.975Z" fill="#263238"/>
<path d="M97.1475 364.765C97.0277 364.789 96.9044 364.789 96.7847 364.765C96.6732 364.715 96.5726 364.643 96.4887 364.552C96.4049 364.461 96.3397 364.353 96.297 364.235C96.2542 364.117 96.2349 363.992 96.2401 363.866C96.2453 363.74 96.275 363.616 96.3273 363.503C105.181 340.476 108.505 315.555 106.012 290.894C105.985 290.642 106.054 290.39 106.205 290.191C106.355 289.992 106.575 289.862 106.816 289.829C106.936 289.813 107.057 289.822 107.173 289.856C107.289 289.889 107.397 289.947 107.491 290.025C107.586 290.103 107.664 290.2 107.721 290.309C107.779 290.419 107.814 290.54 107.826 290.665C112.369 330.615 98.1254 363.945 97.9834 364.289C97.8996 364.441 97.7772 364.565 97.6297 364.649C97.4822 364.733 97.3154 364.773 97.1475 364.765V364.765Z" fill="#263238"/>
<path d="M84.2129 349.132C84.0444 349.134 83.8787 349.088 83.734 348.998C83.5892 348.908 83.4711 348.779 83.3927 348.624C83.2823 348.378 71.342 323.733 75.1906 286.814C76.7381 270.764 80.3125 254.996 85.8218 239.916C87.6515 234.656 88.8502 231.182 88.519 229.019C88.3455 227.904 86.9417 218.072 89.5443 216.86C90.0648 216.614 90.9165 216.581 91.8945 217.827C94.639 221.333 102.936 247.88 102.447 269.788C102.447 269.913 102.423 270.037 102.377 270.152C102.331 270.267 102.264 270.372 102.179 270.46C102.094 270.549 101.993 270.619 101.882 270.666C101.771 270.714 101.652 270.739 101.532 270.739C101.412 270.739 101.293 270.714 101.182 270.666C101.071 270.619 100.97 270.549 100.885 270.46C100.8 270.372 100.733 270.267 100.687 270.152C100.641 270.037 100.617 269.913 100.617 269.788C101.106 247.699 92.5885 221.759 90.4749 218.99L90.2225 218.711C89.7493 219.76 89.5758 223.758 90.3329 228.691C90.7273 231.329 89.4654 234.983 87.5411 240.522C82.0909 255.463 78.5486 271.081 77.0046 286.978C73.219 323.307 84.8912 347.477 85.0174 347.723C85.0742 347.833 85.1092 347.954 85.1201 348.079C85.131 348.204 85.1177 348.329 85.0809 348.449C85.0441 348.568 84.9846 348.678 84.9059 348.773C84.8273 348.868 84.7311 348.945 84.623 349.001C84.4983 349.078 84.3577 349.123 84.2129 349.132Z" fill="#263238"/>
<path d="M84.5126 327.829C84.2753 327.829 84.0473 327.734 83.8766 327.562C83.7059 327.391 83.6059 327.158 83.5977 326.912C83.5977 326.567 83.3927 318.587 86.3738 301.316C89.3549 284.044 92.6831 243.16 92.6831 242.734C92.7109 242.485 92.8292 242.256 93.014 242.095C93.1987 241.933 93.4358 241.851 93.6768 241.865C93.7965 241.876 93.913 241.911 94.0195 241.968C94.126 242.026 94.2202 242.105 94.2966 242.202C94.3731 242.298 94.4302 242.409 94.4646 242.529C94.4991 242.648 94.5101 242.774 94.497 242.898C94.497 243.307 91.1058 284.454 88.1877 301.66C85.2697 318.866 85.4274 326.764 85.4432 326.846C85.4435 327.098 85.3503 327.341 85.1829 327.524C85.0156 327.707 84.7868 327.817 84.5441 327.829H84.5126Z" fill="#263238"/>
<path d="M61.9574 326.567C61.8261 326.566 61.6967 326.536 61.5772 326.479C61.4577 326.423 61.3508 326.341 61.2634 326.24C61.1372 326.076 48.0454 310.296 44.8435 289.108C41.6415 267.92 40.285 260.857 38.2187 257.809C37.02 256.023 36.9726 254.106 38.1083 253.008C38.7235 252.402 41.263 250.796 46.8624 255.581C54.2916 261.89 71.7999 285.077 76.2163 300.201C76.2697 300.437 76.2341 300.686 76.117 300.895C75.9999 301.105 75.8101 301.26 75.5864 301.33C75.3627 301.399 75.122 301.376 74.9137 301.267C74.7053 301.158 74.545 300.97 74.4655 300.742C70.2225 286.207 52.8089 263.053 45.6952 257.056C42.1463 254.041 39.9538 253.778 39.3859 254.401C39.0389 254.745 39.0389 255.646 39.7645 256.712C42.0674 260.104 43.3766 266.97 46.6889 288.813C49.8436 309.46 62.5725 324.863 62.6987 324.994C62.7777 325.089 62.8379 325.199 62.8759 325.317C62.9139 325.436 62.929 325.562 62.9202 325.687C62.9114 325.811 62.8789 325.933 62.8247 326.045C62.7704 326.157 62.6955 326.256 62.6041 326.338C62.4243 326.497 62.1931 326.579 61.9574 326.567V326.567Z" fill="#263238"/>
<path d="M82.0206 343.905C81.8851 343.905 81.7512 343.875 81.6285 343.815C81.5057 343.756 81.3972 343.669 81.3108 343.561C81.3108 343.462 73.6135 333.892 63.4871 318.604C53.3607 303.315 47.8559 275.556 47.6193 274.36C47.5964 274.237 47.597 274.111 47.6211 273.989C47.6452 273.866 47.6922 273.75 47.7596 273.647C47.827 273.543 47.9134 273.454 48.0138 273.386C48.1142 273.317 48.2267 273.269 48.3448 273.246C48.5806 273.202 48.8237 273.254 49.0235 273.391C49.2233 273.528 49.3644 273.74 49.4174 273.983C49.4174 274.278 55.0169 302.43 65.0013 317.522C74.9858 332.614 82.6515 342.233 82.7304 342.332C82.8822 342.528 82.954 342.779 82.9304 343.03C82.9069 343.281 82.7898 343.513 82.6042 343.675C82.4416 343.82 82.235 343.902 82.0206 343.905V343.905Z" fill="#263238"/>
<path d="M55.3956 267.346C55.1997 267.341 55.0103 267.272 54.8545 267.148C54.6987 267.025 54.5845 266.853 54.5281 266.658C54.5281 266.462 48.7235 246.372 46.9254 233.295C46.4995 230.133 46.0894 227.544 45.7582 225.413C44.8749 219.858 44.5437 217.761 45.6005 216.712C45.8834 216.468 46.2199 216.299 46.5803 216.222C46.9407 216.145 47.3138 216.161 47.6667 216.27C50.6321 216.876 75.6011 236.671 81.6264 259.53C81.6616 259.652 81.6729 259.78 81.6597 259.906C81.6464 260.033 81.6088 260.155 81.5492 260.266C81.4895 260.377 81.409 260.475 81.3125 260.553C81.2159 260.631 81.1052 260.688 80.9869 260.721C80.8686 260.754 80.7452 260.762 80.6239 260.745C80.5027 260.727 80.386 260.684 80.2809 260.619C80.1758 260.554 80.0844 260.467 80.0121 260.365C79.9397 260.262 79.888 260.145 79.8598 260.022C74.1342 238.359 50.0485 218.678 47.3197 218.121C47.1581 218.091 46.9924 218.091 46.8308 218.121C46.5153 218.596 47.0043 221.628 47.5563 225.151C47.8876 227.265 48.2977 229.887 48.7393 233.066C50.5059 246.011 56.2158 265.954 56.2789 266.15C56.3475 266.391 56.3213 266.651 56.206 266.872C56.0907 267.093 55.8957 267.258 55.6638 267.33C55.5761 267.352 55.4852 267.358 55.3956 267.346V267.346Z" fill="#263238"/>
<path d="M75.5061 295.679C75.2927 295.683 75.085 295.607 74.9202 295.466C74.7555 295.325 74.6445 295.127 74.6071 294.909C72.9255 287.604 69.9226 280.697 65.7583 274.557C58.4395 263.48 53.9915 238.769 53.818 237.72C53.7951 237.597 53.7957 237.471 53.8198 237.349C53.8439 237.226 53.891 237.11 53.9584 237.006C54.0258 236.903 54.1121 236.814 54.2125 236.745C54.313 236.677 54.4255 236.629 54.5436 236.606C54.7833 236.567 55.0283 236.625 55.2279 236.768C55.4275 236.911 55.5665 237.129 55.6161 237.376C55.6161 237.622 60.1588 262.742 67.2568 273.426C71.5929 279.774 74.7 286.936 76.4052 294.516C76.4278 294.639 76.4265 294.765 76.4012 294.887C76.376 295.009 76.3273 295.125 76.2582 295.228C76.1891 295.33 76.1008 295.417 75.9987 295.483C75.8966 295.55 75.7828 295.594 75.6639 295.614L75.5061 295.679Z" fill="#263238"/>
<path d="M86.2794 242.324C86.1593 242.32 86.0411 242.291 85.9316 242.24C85.8222 242.188 85.7236 242.114 85.6416 242.023C85.5596 241.932 85.4957 241.825 85.4535 241.708C85.4114 241.591 85.3919 241.466 85.3961 241.341C85.7274 232.279 84.6548 226.298 81.5632 220.039L81.2005 219.334C75.112 206.897 67.9667 191.952 66.9257 186.774C66.2475 183.497 65.1907 182.169 64.6859 182.153C64.5755 182.153 63.2663 182.268 61.6732 187.757C58.9603 197.032 65.3326 231.591 65.4115 232.001C65.4575 232.249 65.4069 232.505 65.2708 232.714C65.1348 232.923 64.9244 233.067 64.6859 233.115C64.4475 233.163 64.2005 233.11 63.9994 232.969C63.7982 232.828 63.6594 232.609 63.6133 232.361C63.3452 230.919 57.0832 196.983 59.9224 187.266C61.2789 182.579 62.8405 180.301 64.6544 180.301H64.6701C67.0361 180.4 68.156 184.185 68.6134 186.43C69.7491 192.018 79.1815 211.272 82.8093 218.515L83.1563 219.236C86.4056 225.79 87.5413 232.099 87.1943 241.505C87.1636 241.734 87.0539 241.943 86.8855 242.094C86.7171 242.245 86.5017 242.327 86.2794 242.324V242.324Z" fill="#263238"/>
<path d="M79.7496 257.498C79.521 257.496 79.3015 257.406 79.1327 257.245C78.964 257.085 78.8579 256.866 78.8347 256.63C78.8347 256.515 77.9514 244.488 77.0839 236.819C76.2164 229.15 67.62 215.024 67.4938 214.893C67.3641 214.676 67.3228 214.414 67.379 214.165C67.4352 213.916 67.5843 213.701 67.7935 213.566C68.0026 213.431 68.2547 213.388 68.4944 213.447C68.734 213.505 68.9414 213.66 69.0711 213.877C69.4339 214.467 78.0303 228.625 78.9293 236.589C79.8284 244.553 80.6802 256.368 80.6959 256.482C80.7134 256.732 80.6354 256.979 80.4789 257.169C80.3224 257.359 80.1 257.477 79.86 257.498H79.7496Z" fill="#263238"/>
<ellipse cx="250.005" cy="264.643" rx="0.788666" ry="0.819321" fill="#263238"/>
<ellipse cx="260.258" cy="267.101" rx="1.57732" ry="1.63866" fill="#263238"/>
<ellipse cx="249.216" cy="263.824" rx="1.57732" ry="1.63864" fill="#263238"/>
<ellipse rx="1.19591" ry="6.11843" transform="matrix(0.88801 0.459825 -0.432564 0.901603 183.805 247.235)" fill="#263238"/>
</svg>
