<svg width="311" height="311" viewBox="0 0 311 311" fill="none" xmlns="http://www.w3.org/2000/svg">
<path d="M297.111 143.582C293.852 127.64 288.129 112.078 281.325 97.7721C269.594 73.0911 250.374 52.5962 225.786 40.4299C165.452 10.5739 121.912 23.0139 98.2764 47.2719C74.6404 71.5299 81.4824 113.204 55.9804 131.242C30.4784 149.28 12.4404 157.366 11.1964 190.332C9.95238 223.298 26.1244 248.178 52.2484 256.264C78.3724 264.35 117.558 290.474 195.93 275.546C274.302 260.618 293.584 218.944 298.56 189.088C301.048 174.067 300.19 158.653 297.111 143.582Z" fill="#CBCBCB"/>
<path opacity="0.7" d="M297.111 143.582C293.852 127.64 288.129 112.078 281.325 97.7721C269.594 73.0911 250.374 52.5962 225.786 40.4299C165.452 10.5739 121.912 23.0139 98.2764 47.2719C74.6404 71.5299 81.4824 113.204 55.9804 131.242C30.4784 149.28 12.4404 157.366 11.1964 190.332C9.95238 223.298 26.1244 248.178 52.2484 256.264C78.3724 264.35 117.558 290.474 195.93 275.546C274.302 260.618 293.584 218.944 298.56 189.088C301.048 174.067 300.19 158.653 297.111 143.582Z" fill="white"/>
<path d="M113.403 52.5713H107.768V77.5446H113.403V52.5713Z" fill="#C9C9C9" stroke="#263238" stroke-linecap="round" stroke-linejoin="round"/>
<path d="M113.403 56.3281H107.768V58.7664H113.403V56.3281Z" fill="white" stroke="#263238" stroke-linecap="round" stroke-linejoin="round"/>
<path d="M113.403 71.8223H107.768V74.2605H113.403V71.8223Z" fill="white" stroke="#263238" stroke-linecap="round" stroke-linejoin="round"/>
<path d="M119.978 52.5713H112.091V77.5446H119.978V52.5713Z" fill="#878787" stroke="#263238" stroke-linecap="round" stroke-linejoin="round"/>
<path d="M119.418 52.5713H113.783V77.5446H119.418V52.5713Z" fill="#C9C9C9" stroke="#263238" stroke-linecap="round" stroke-linejoin="round"/>
<path d="M119.418 56.3281H113.783V58.7664H119.418V56.3281Z" fill="white" stroke="#263238" stroke-linecap="round" stroke-linejoin="round"/>
<path d="M119.418 71.8223H113.783V74.2605H119.418V71.8223Z" fill="white" stroke="#263238" stroke-linecap="round" stroke-linejoin="round"/>
<path d="M125.987 52.5713H118.1V77.5446H125.987V52.5713Z" fill="#878787" stroke="#263238" stroke-linecap="round" stroke-linejoin="round"/>
<path d="M125.427 52.5713H119.792V77.5446H125.427V52.5713Z" fill="#C9C9C9" stroke="#263238" stroke-linecap="round" stroke-linejoin="round"/>
<path d="M125.427 56.3281H119.792V58.7664H125.427V56.3281Z" fill="white" stroke="#263238" stroke-linecap="round" stroke-linejoin="round"/>
<path d="M125.427 71.8223H119.792V74.2605H125.427V71.8223Z" fill="white" stroke="#263238" stroke-linecap="round" stroke-linejoin="round"/>
<path d="M131.995 52.5713H124.108V77.5446H131.995V52.5713Z" fill="#C9C9C9" stroke="#263238" stroke-linecap="round" stroke-linejoin="round"/>
<path d="M137.133 77.7996H150.369L153.889 74.615H137.133V77.7996Z" fill="white" stroke="#263238" stroke-linecap="round" stroke-linejoin="round"/>
<path d="M152.39 77.9615L151.967 77.2337L136.859 77.2026L137.294 77.9615H152.39Z" fill="white" stroke="#263238" stroke-linecap="round" stroke-linejoin="round"/>
<path d="M129.47 53.0913L124.591 55.9124L137.093 77.5311L141.971 74.7101L129.47 53.0913Z" fill="#C9C9C9" stroke="#263238" stroke-linecap="round" stroke-linejoin="round"/>
<path d="M131.352 56.3349L126.474 59.156L127.694 61.2667L132.573 58.4457L131.352 56.3349Z" fill="white" stroke="#263238" stroke-linecap="round" stroke-linejoin="round"/>
<path d="M139.113 69.7461L134.235 72.5671L135.455 74.6779L140.334 71.8568L139.113 69.7461Z" fill="white" stroke="#263238" stroke-linecap="round" stroke-linejoin="round"/>
<path d="M153.802 74.8325L141.841 74.8014L129.339 53.1807L141.3 53.2118L153.802 74.8325Z" fill="#C9C9C9" stroke="#263238" stroke-linecap="round" stroke-linejoin="round"/>
<path d="M160.321 65.1544C160.321 65.1544 158.144 64.3769 157.522 60.9559C156.9 57.5349 155.811 52.7144 157.055 51.6259C158.299 50.5374 160.632 49.9154 160.943 52.0924C161.254 54.2694 160.787 58.4679 161.254 59.4009C161.72 60.3339 163.275 59.7119 163.275 57.8459C163.275 54.7732 162.031 51.6259 162.473 48.5159C163.095 44.2179 167.449 43.7451 167.915 48.5159C168.176 51.1532 168.251 53.8464 168.251 56.4961C168.251 57.5846 170.117 58.2066 169.962 55.5631C169.85 53.6971 171.206 51.5201 173.072 52.1421C174.938 52.7641 173.383 61.0056 172.761 62.4051C172.139 63.8046 168.251 64.0659 168.251 64.0659V67.6424L163.586 67.7979L163.431 64.2214C162.481 64.7704 161.416 65.0899 160.321 65.1544V65.1544Z" fill="#CBCBCB" stroke="#263238" stroke-linecap="round" stroke-linejoin="round"/>
<path d="M164.52 58.3372C164.576 59.1147 164.613 59.5812 164.613 59.5812" stroke="#263238" stroke-linecap="round" stroke-linejoin="round"/>
<path d="M164.83 46.2766C164.83 46.2766 163.81 46.9857 163.885 49.1129C163.935 50.4067 164.183 53.9894 164.376 56.608" stroke="#263238" stroke-linecap="round" stroke-linejoin="round"/>
<path d="M166.584 53.6101L166.746 58.8162" stroke="#263238" stroke-linecap="round" stroke-linejoin="round"/>
<path d="M168.861 62.2C168.501 62.256 168.137 62.2872 167.772 62.2932" stroke="#263238" stroke-linecap="round" stroke-linejoin="round"/>
<path d="M172.108 53.4546C171.749 54.1354 171.559 54.8929 171.554 55.6627C171.554 56.9067 171.635 60.3961 170.845 61.3415C170.652 61.5538 170.417 61.7233 170.155 61.8391" stroke="#263238" stroke-linecap="round" stroke-linejoin="round"/>
<path d="M158.611 60.4519C158.798 61.3871 159.246 62.2499 159.905 62.9399C160.294 63.2515 160.774 63.4274 161.273 63.4409C161.771 63.4543 162.261 63.3046 162.666 63.0145" stroke="#263238" stroke-linecap="round" stroke-linejoin="round"/>
<path d="M158.461 52.0366C158.461 52.0366 156.888 52.0366 157.435 54.7921C157.671 55.9552 157.889 57.3858 158.169 58.7356" stroke="#263238" stroke-linecap="round" stroke-linejoin="round"/>
<path d="M164.376 62.5232L164.693 65.9131" stroke="#263238" stroke-linecap="round" stroke-linejoin="round"/>
<path d="M172.45 66.2429L171.884 70.883L171.498 74.0428L171.05 77.7188H159.86L159.413 74.0428L159.027 70.883L158.461 66.2429H172.45Z" fill="white" stroke="#263238" stroke-linecap="round" stroke-linejoin="round"/>
<path d="M171.884 70.8828L171.498 74.0426H159.413L159.027 70.8828H171.884Z" fill="#CBCBCB" stroke="#263238" stroke-linecap="round" stroke-linejoin="round"/>
<path d="M178.595 77.7188H106.773V82.4771H178.595V77.7188Z" fill="white" stroke="#263238" stroke-linecap="round" stroke-linejoin="round"/>
<path d="M178.595 77.7188H162.038V82.4771H178.595V77.7188Z" fill="white" stroke="#263238" stroke-linecap="round" stroke-linejoin="round"/>
<path d="M160.427 82.4958C168.121 85.3322 166.734 90.6938 166.734 90.6938H174.017V82.4958H160.427Z" fill="#919191" stroke="#263238" stroke-linecap="round" stroke-linejoin="round"/>
<path d="M162.883 82.4958C170.571 85.3322 169.184 90.6938 169.184 90.6938H176.474V82.4958H162.883Z" fill="white" stroke="#263238" stroke-linecap="round" stroke-linejoin="round"/>
<path d="M111.133 82.4958C118.827 85.3322 117.44 90.6938 117.44 90.6938H124.724V82.4958H111.133Z" fill="#919191" stroke="#263238" stroke-linecap="round" stroke-linejoin="round"/>
<path d="M113.59 82.4958C121.278 85.3322 119.891 90.6938 119.891 90.6938H127.181V82.4958H113.59Z" fill="white" stroke="#263238" stroke-linecap="round" stroke-linejoin="round"/>
<path d="M278.681 53.4609H214.267V142.88H278.681V53.4609Z" fill="#919191" stroke="#263238" stroke-linecap="round" stroke-linejoin="round"/>
<path d="M275.888 57.3423H217.065V138.998H275.888V57.3423Z" fill="#CBCBCB"/>
<path opacity="0.5" d="M275.888 57.3423H217.065V138.998H275.888V57.3423Z" fill="white"/>
<path d="M229.997 132.797C228.42 135.203 226.427 137.309 224.113 139.017H275.888V57.3423H266.347L265.103 57.7341C255.773 60.6762 246.132 69.1914 240.664 84.6667" stroke="#263238" stroke-linecap="round" stroke-linejoin="round"/>
<path d="M239.756 87.3787C237.584 94.7589 236.384 102.391 236.186 110.082C235.844 119.312 233.878 125.949 231.253 130.72" stroke="#263238" stroke-linecap="round" stroke-linejoin="round"/>
<path d="M270.135 78.0674C261.582 83.0434 251.624 91.4031 247.904 104.222C245.908 111.064 247.78 117.235 251.481 122.516" stroke="#263238" stroke-linecap="round" stroke-linejoin="round"/>
<path d="M253.484 125.09C258.615 131.099 265.924 135.826 271.839 139.005H275.888V75.0505C274.731 75.5917 273.5 76.2012 272.219 76.9165" stroke="#263238" stroke-linecap="round" stroke-linejoin="round"/>
<path d="M226.844 78.6333C231.347 69.4526 231.819 62.169 231.303 57.3423H217.078V94.6996C219.18 91.7078 221.756 87.7083 224.866 82.3467C225.058 82.017 225.239 81.7247 225.419 81.3764" stroke="#263238" stroke-linecap="round" stroke-linejoin="round"/>
<path d="M232.417 113.994C231.727 118.516 229.649 121.8 227.198 121.8C224.182 121.8 221.731 116.824 221.731 110.666C221.731 104.508 224.182 99.5325 227.198 99.5325C230.215 99.5325 232.666 104.508 232.666 110.666" stroke="#263238" stroke-linecap="round" stroke-linejoin="round"/>
<path d="M235.01 87.8139C235.01 90.1837 233.965 92.1119 232.665 92.1119C231.365 92.1119 230.327 90.1837 230.327 87.8139C230.327 85.4441 231.372 83.5159 232.665 83.5159C233.959 83.5159 235.01 85.4378 235.01 87.8139Z" stroke="#263238" stroke-linecap="round" stroke-linejoin="round"/>
<path d="M264.854 105.97C267.112 107.046 268.586 108.925 268.586 111.058C268.586 114.398 264.916 117.11 260.382 117.11C255.847 117.11 252.184 114.398 252.184 111.058C252.184 107.718 255.853 105 260.382 105C261.104 104.999 261.825 105.07 262.534 105.211" stroke="#263238" stroke-linecap="round" stroke-linejoin="round"/>
<path d="M263.84 111.058C263.84 112.458 262.303 113.596 260.4 113.596C258.497 113.596 256.96 112.458 256.96 111.058C256.96 109.659 258.503 108.514 260.4 108.514C262.297 108.514 263.84 109.652 263.84 111.058Z" stroke="#263238" stroke-linecap="round" stroke-linejoin="round"/>
<path d="M269.388 95.6264C269.388 97.567 267.466 99.1407 265.09 99.1407C262.714 99.1407 260.792 97.567 260.792 95.6264C260.792 93.6857 262.714 92.1121 265.09 92.1121C267.466 92.1121 269.388 93.6857 269.388 95.6264Z" stroke="#263238" stroke-linecap="round" stroke-linejoin="round"/>
<path d="M238.332 76.0954C239.95 76.0954 241.262 72.8595 241.262 68.8678C241.262 64.8761 239.95 61.6401 238.332 61.6401C236.714 61.6401 235.402 64.8761 235.402 68.8678C235.402 72.8595 236.714 76.0954 238.332 76.0954Z" stroke="#263238" stroke-linecap="round" stroke-linejoin="round"/>
<path d="M246.343 130.981C246.343 131.793 246.102 132.587 245.651 133.262C245.2 133.937 244.559 134.463 243.809 134.774C243.059 135.084 242.233 135.166 241.437 135.007C240.641 134.849 239.909 134.458 239.335 133.884C238.761 133.31 238.37 132.578 238.212 131.782C238.053 130.985 238.135 130.16 238.445 129.41C238.756 128.66 239.282 128.019 239.957 127.568C240.632 127.117 241.426 126.876 242.238 126.876C243.327 126.876 244.371 127.308 245.141 128.078C245.911 128.848 246.343 129.892 246.343 130.981Z" stroke="#263238" stroke-linecap="round" stroke-linejoin="round"/>
<path d="M265.482 70.0373C265.483 70.5409 265.335 71.0337 265.056 71.453C264.777 71.8723 264.38 72.1993 263.914 72.3926C263.449 72.5859 262.937 72.6368 262.443 72.5389C261.949 72.4409 261.495 72.1985 261.139 71.8423C260.783 71.4862 260.541 71.0323 260.443 70.5383C260.345 70.0442 260.396 69.5322 260.589 69.0671C260.782 68.602 261.109 68.2047 261.529 67.9257C261.948 67.6466 262.441 67.4983 262.944 67.4995C263.617 67.5012 264.261 67.7691 264.737 68.2446C265.212 68.7202 265.48 69.3647 265.482 70.0373Z" stroke="#263238" stroke-linecap="round" stroke-linejoin="round"/>
<path d="M249.465 88.0067C249.467 88.2776 249.387 88.5428 249.238 88.7687C249.088 88.9945 248.875 89.1709 248.625 89.2754C248.375 89.3799 248.1 89.4079 247.834 89.3558C247.568 89.3037 247.324 89.1739 247.132 88.9828C246.94 88.7916 246.809 88.5478 246.755 88.2822C246.702 88.0166 246.729 87.7411 246.832 87.4907C246.935 87.2403 247.111 87.0262 247.336 86.8756C247.561 86.725 247.826 86.6445 248.097 86.6445C248.276 86.6437 248.454 86.6784 248.62 86.7464C248.786 86.8145 248.937 86.9147 249.064 87.0413C249.191 87.1679 249.292 87.3183 249.361 87.484C249.43 87.6497 249.465 87.8273 249.465 88.0067V88.0067Z" stroke="#263238" stroke-linecap="round" stroke-linejoin="round"/>
<path d="M275.888 57.3423H217.065V138.998H275.888V57.3423Z" stroke="#263238" stroke-linecap="round" stroke-linejoin="round"/>
<path d="M179.752 173.781H163.772V179.795H179.752V173.781Z" fill="#263238" stroke="#263238" stroke-linecap="round" stroke-linejoin="round"/>
<path d="M201.192 174.689H137.593L140.603 125.389H204.209L201.192 174.689Z" fill="#919191" stroke="#263238" stroke-linecap="round" stroke-linejoin="round"/>
<path d="M199.37 174.689H135.771L138.781 125.389H202.38L199.37 174.689Z" fill="#263238" stroke="#263238" stroke-linecap="round" stroke-linejoin="round"/>
<path d="M196.005 171.946H139.471L142.146 128.126H198.679L196.005 171.946Z" fill="white" stroke="#263238" stroke-linecap="round" stroke-linejoin="round"/>
<path d="M179.559 165.415H141.157L143.216 131.646H181.624L179.559 165.415Z" fill="#919191" stroke="#263238" stroke-linecap="round" stroke-linejoin="round"/>
<path d="M156.309 150.91C156.309 150.91 148.31 154.076 148.26 154.928C148.211 155.78 146.643 165.415 146.643 165.415H170.428L168.426 154.318L159.624 150.661L156.309 150.91Z" fill="white" stroke="#263238" stroke-linecap="round" stroke-linejoin="round"/>
<path d="M156.545 148.957C155.943 149.115 155.384 149.407 154.909 149.809C154.287 150.431 153.528 152.49 153.528 152.49L153.497 154.928L156.651 153.224L159.854 153.012L162.852 155.817L163.238 151.55C163.238 151.55 162.777 149.112 161.807 148.988C160.837 148.863 156.545 148.957 156.545 148.957Z" fill="white" stroke="#263238" stroke-linecap="round" stroke-linejoin="round"/>
<path d="M156.445 146.643L156.309 150.91L158.193 153.958L161.309 150.785L161.795 146.885L156.445 146.643Z" fill="white" stroke="#263238" stroke-linecap="round" stroke-linejoin="round"/>
<path d="M164.134 141.654C163.91 145.231 161.534 149.566 158.928 149.566C156.321 149.566 154.474 145.212 154.692 141.654C154.909 138.097 157.18 135.179 159.805 135.179C162.429 135.179 164.351 138.084 164.134 141.654Z" fill="white" stroke="#263238" stroke-linecap="round" stroke-linejoin="round"/>
<path d="M154.648 142.127C154.648 142.127 153.808 139.938 153.46 141.642C153.111 143.346 154.828 145.175 154.828 145.175L154.648 142.127Z" fill="white" stroke="#263238" stroke-linecap="round" stroke-linejoin="round"/>
<path d="M164.133 141.655C164.133 141.655 166.192 140.79 165.589 142.619C165.436 143.136 165.169 143.613 164.807 144.013C164.445 144.414 163.998 144.728 163.499 144.933L164.133 141.655Z" fill="white" stroke="#263238" stroke-linecap="round" stroke-linejoin="round"/>
<path d="M158.672 142.127C158.689 141.907 158.659 141.687 158.586 141.479C158.512 141.272 158.396 141.082 158.245 140.921C158.094 140.761 157.912 140.634 157.709 140.548C157.506 140.462 157.288 140.42 157.067 140.423C156.609 140.435 156.171 140.615 155.837 140.93C155.503 141.244 155.297 141.67 155.257 142.127C155.241 142.347 155.27 142.568 155.344 142.776C155.417 142.984 155.533 143.174 155.684 143.335C155.835 143.496 156.017 143.623 156.22 143.71C156.423 143.796 156.642 143.84 156.862 143.838C157.321 143.825 157.76 143.644 158.094 143.328C158.428 143.013 158.634 142.585 158.672 142.127V142.127Z" fill="white" stroke="#263238" stroke-linecap="round" stroke-linejoin="round"/>
<path d="M162.815 142.127L164.675 141.642" stroke="#263238" stroke-linecap="round" stroke-linejoin="round"/>
<path d="M162.815 142.127C162.831 141.908 162.802 141.688 162.729 141.481C162.656 141.274 162.54 141.084 162.39 140.924C162.24 140.764 162.058 140.636 161.856 140.55C161.654 140.464 161.436 140.421 161.216 140.423C160.757 140.433 160.317 140.613 159.982 140.928C159.647 141.242 159.44 141.669 159.4 142.127C159.384 142.347 159.413 142.568 159.486 142.776C159.56 142.984 159.676 143.174 159.827 143.335C159.977 143.496 160.16 143.624 160.363 143.71C160.566 143.797 160.784 143.84 161.005 143.838C161.464 143.826 161.903 143.644 162.237 143.329C162.571 143.013 162.777 142.585 162.815 142.127V142.127Z" fill="white" stroke="#263238" stroke-linecap="round" stroke-linejoin="round"/>
<path d="M159.381 134.445C159.381 134.445 157.515 133.475 156.116 134.085C154.716 134.694 153.684 137.985 153.752 138.837C153.972 139.954 154.271 141.053 154.648 142.127L156.128 137.86L160.01 136.156L159.381 134.445Z" fill="#263238" stroke="#263238" stroke-linecap="round" stroke-linejoin="round"/>
<path d="M157.503 135.304C157.503 135.304 160.576 132.866 163.064 134.06C163.825 134.391 164.455 134.966 164.852 135.695C165.25 136.424 165.393 137.265 165.26 138.084C165.222 138.706 165.172 141.493 165.172 141.493L163.692 141.741L162.964 139.446C162.123 139.114 161.305 138.727 160.514 138.289C160.514 138.289 157.223 137.86 157.503 135.304Z" fill="#263238" stroke="#263238" stroke-linecap="round" stroke-linejoin="round"/>
<path d="M158.672 142.127L158.455 145.666H159.307" fill="white"/>
<path d="M158.672 142.127L158.455 145.666H159.307" stroke="#263238" stroke-linecap="round" stroke-linejoin="round"/>
<path d="M158.007 147.004H159.836" stroke="#263238" stroke-linecap="round" stroke-linejoin="round"/>
<path d="M158.194 153.958L157.516 165.048" stroke="#263238" stroke-linecap="round" stroke-linejoin="round"/>
<path d="M168.413 154.318C168.413 154.318 165.869 160.053 165.794 161.272C165.72 162.491 165.434 165.172 165.434 165.172" stroke="#263238" stroke-linecap="round" stroke-linejoin="round"/>
<path d="M148.26 154.928C148.26 154.928 150.792 159.319 151.121 159.904C151.451 160.489 151.047 165.147 151.047 165.147" stroke="#263238" stroke-linecap="round" stroke-linejoin="round"/>
<path d="M170.111 158.467L170.951 154.685L172.381 153.223L173.731 151.028H174.34L173.594 153.348L175.485 152.247L176.704 150.3L177.413 150.661L175.672 155.177L172.91 156.514L172.431 158.343L170.111 158.467Z" fill="white" stroke="#263238" stroke-linecap="round" stroke-linejoin="round"/>
<path d="M172.475 165.415L172.705 157.858L169.931 157.366L167.741 165.415H172.475Z" fill="white" stroke="#263238" stroke-linecap="round" stroke-linejoin="round"/>
<path d="M179.391 168.22H140.983L141.157 165.415H179.559L179.391 168.22Z" fill="white" stroke="#263238" stroke-linecap="round" stroke-linejoin="round"/>
<path d="M142.55 166.516H177.787" stroke="#263238" stroke-linecap="round" stroke-linejoin="round"/>
<path d="M196.067 140.659H183.142L183.689 131.758H196.614L196.067 140.659Z" fill="#CBCBCB" stroke="#263238" stroke-linecap="round" stroke-linejoin="round"/>
<path d="M196.067 140.659H183.142L183.235 139.198H196.16L196.067 140.659Z" fill="white" stroke="#263238" stroke-linecap="round" stroke-linejoin="round"/>
<path d="M191.893 135.689L188.535 133.68L188.292 137.699L191.893 135.689Z" fill="white" stroke="#263238" stroke-linecap="round" stroke-linejoin="round"/>
<path d="M195.227 154.437H182.302L182.843 145.542H195.769L195.227 154.437Z" fill="#CBCBCB" stroke="#263238" stroke-linecap="round" stroke-linejoin="round"/>
<path d="M195.227 154.437H182.302L182.396 152.975H195.315L195.227 154.437Z" fill="white" stroke="#263238" stroke-linecap="round" stroke-linejoin="round"/>
<path d="M191.054 149.473L187.695 147.464L187.452 151.482L191.054 149.473Z" fill="white" stroke="#263238" stroke-linecap="round" stroke-linejoin="round"/>
<path d="M194.381 168.22H181.462L182.004 159.319H194.929L194.381 168.22Z" fill="#CBCBCB" stroke="#263238" stroke-linecap="round" stroke-linejoin="round"/>
<path d="M194.381 168.22H181.462L181.549 166.758H194.475L194.381 168.22Z" fill="white" stroke="#263238" stroke-linecap="round" stroke-linejoin="round"/>
<path d="M190.208 163.251L186.855 161.241L186.606 165.26L190.208 163.251Z" fill="white" stroke="#263238" stroke-linecap="round" stroke-linejoin="round"/>
<path d="M183.179 142.127H195.731" stroke="#263238" stroke-linecap="round" stroke-linejoin="round"/>
<path d="M183.086 143.595H195.644" stroke="#263238" stroke-linecap="round" stroke-linejoin="round"/>
<path d="M182.327 156.029H194.885" stroke="#263238" stroke-linecap="round" stroke-linejoin="round"/>
<path d="M182.24 157.49H194.798" stroke="#263238" stroke-linecap="round" stroke-linejoin="round"/>
<path d="M176.76 179.796H167.318C167.318 178.854 167.693 177.95 168.359 177.284C169.025 176.618 169.928 176.244 170.87 176.244H173.196C174.138 176.244 175.042 176.618 175.708 177.284C176.374 177.95 176.748 178.854 176.748 179.796H176.76Z" fill="white" stroke="#263238" stroke-linecap="round" stroke-linejoin="round"/>
<path d="M162.821 177.861H116.656V179.796H162.821V177.861Z" fill="#919191" stroke="#263238" stroke-linecap="round" stroke-linejoin="round"/>
<path d="M162.809 177.861H151.208V179.796H162.809V177.861Z" fill="white" stroke="#263238" stroke-linecap="round" stroke-linejoin="round"/>
<path d="M97.7349 84.984V48.23" stroke="#263238" stroke-linecap="round" stroke-linejoin="round"/>
<path d="M97.7349 268.928V88.6414" stroke="#263238" stroke-linecap="round" stroke-linejoin="round"/>
<path d="M181.667 192.696L187.265 268.163C187.295 268.438 187.428 268.692 187.637 268.873C187.847 269.054 188.118 269.148 188.395 269.136C188.671 269.124 188.933 269.007 189.127 268.809C189.32 268.611 189.431 268.346 189.436 268.07L188.597 192.696H181.667Z" fill="#919191" stroke="#263238" stroke-linecap="round" stroke-linejoin="round"/>
<path d="M185.891 192.696L188.846 269.034C189.02 268.94 189.165 268.801 189.266 268.631C189.367 268.461 189.42 268.267 189.418 268.07L188.597 192.696H185.891Z" fill="white" stroke="#263238" stroke-linecap="round" stroke-linejoin="round"/>
<path d="M216.854 192.696L222.452 268.163C222.482 268.438 222.615 268.692 222.824 268.873C223.034 269.054 223.305 269.148 223.582 269.136C223.858 269.124 224.12 269.007 224.314 268.809C224.507 268.611 224.618 268.346 224.623 268.07L223.784 192.696H216.854Z" fill="#919191" stroke="#263238" stroke-linecap="round" stroke-linejoin="round"/>
<path d="M220.748 192.696L224.194 268.922C224.323 268.821 224.427 268.691 224.498 268.543C224.57 268.396 224.606 268.234 224.604 268.07L223.783 192.696H220.748Z" fill="white" stroke="#263238" stroke-linecap="round" stroke-linejoin="round"/>
<path d="M124.101 193.517L118.503 268.157C118.484 268.431 118.362 268.687 118.161 268.874C117.96 269.061 117.696 269.165 117.421 269.164V269.164C117.277 269.167 117.134 269.141 117 269.087C116.866 269.034 116.745 268.955 116.642 268.854C116.539 268.754 116.457 268.634 116.4 268.501C116.344 268.368 116.315 268.226 116.314 268.082L117.141 193.318L124.101 193.517Z" fill="#263238" stroke="#263238" stroke-linecap="round" stroke-linejoin="round"/>
<path d="M88.9462 193.517L83.3482 268.157C83.3293 268.431 83.207 268.687 83.006 268.874C82.8051 269.061 82.5405 269.165 82.2659 269.164V269.164C82.1225 269.164 81.9806 269.134 81.8484 269.079C81.7163 269.023 81.5964 268.941 81.4959 268.839C81.3953 268.737 81.3159 268.616 81.2623 268.482C81.2088 268.349 81.182 268.207 81.1837 268.064L82.0109 193.299L88.9462 193.517Z" fill="#263238" stroke="#263238" stroke-linecap="round" stroke-linejoin="round"/>
<path d="M225.842 181.549H79.9023V193.305H225.842V181.549Z" fill="#919191" stroke="#263238" stroke-linecap="round" stroke-linejoin="round"/>
<path d="M225.842 181.549H184.019V193.305H225.842V181.549Z" fill="white" stroke="#263238" stroke-linecap="round" stroke-linejoin="round"/>
<path d="M225.842 183.415H79.9023V186.656H225.842V183.415Z" fill="#263238" stroke="#263238" stroke-linecap="round" stroke-linejoin="round"/>
<path d="M227.944 179.864H77.7998V183.795H227.944V179.864Z" fill="#919191" stroke="#263238" stroke-linecap="round" stroke-linejoin="round"/>
<path d="M227.938 179.864H186.706V183.795H227.938V179.864Z" fill="white" stroke="#263238" stroke-linecap="round" stroke-linejoin="round"/>
<path d="M183.67 106.984H163.406C162.35 106.984 161.337 107.403 160.591 108.15C159.844 108.896 159.425 109.909 159.425 110.965V118.429C159.424 118.952 159.526 119.47 159.726 119.953C159.926 120.436 160.219 120.876 160.589 121.245C160.959 121.615 161.398 121.908 161.881 122.108C162.365 122.308 162.883 122.41 163.406 122.409H174.017L170.042 133.512L177.656 122.409H183.67C184.193 122.41 184.711 122.308 185.195 122.108C185.678 121.908 186.117 121.615 186.487 121.245C186.857 120.876 187.15 120.436 187.35 119.953C187.55 119.47 187.652 118.952 187.651 118.429V110.965C187.651 109.909 187.232 108.896 186.485 108.15C185.739 107.403 184.726 106.984 183.67 106.984Z" fill="white" stroke="#263238" stroke-linecap="round" stroke-linejoin="round"/>
<path d="M168.108 116.395C168.908 116.395 169.557 115.746 169.557 114.946C169.557 114.145 168.908 113.496 168.108 113.496C167.308 113.496 166.659 114.145 166.659 114.946C166.659 115.746 167.308 116.395 168.108 116.395Z" fill="#263238"/>
<path d="M173.538 116.395C174.339 116.395 174.987 115.746 174.987 114.946C174.987 114.145 174.339 113.496 173.538 113.496C172.738 113.496 172.089 114.145 172.089 114.946C172.089 115.746 172.738 116.395 173.538 116.395Z" fill="#263238"/>
<path d="M180.411 114.946C180.411 114.659 180.326 114.378 180.167 114.14C180.007 113.901 179.78 113.716 179.515 113.606C179.25 113.497 178.958 113.468 178.677 113.525C178.396 113.581 178.137 113.72 177.935 113.923C177.733 114.126 177.595 114.385 177.54 114.667C177.485 114.948 177.514 115.24 177.625 115.505C177.735 115.769 177.922 115.995 178.161 116.154C178.4 116.312 178.681 116.396 178.968 116.395C179.158 116.395 179.346 116.357 179.522 116.284C179.697 116.211 179.857 116.105 179.991 115.97C180.125 115.835 180.231 115.676 180.303 115.5C180.375 115.324 180.412 115.136 180.411 114.946Z" fill="#263238"/>
<path d="M279.9 269.326H296.694" stroke="#263238" stroke-linecap="round" stroke-linejoin="round"/>
<path d="M14.9277 269.326H271.192" stroke="#263238" stroke-linecap="round" stroke-linejoin="round"/>
<path d="M113.602 159.406C111.78 156.296 106.418 144.323 106.418 144.323C106.58 143.043 106.842 141.779 107.202 140.541C107.643 139.297 108.757 135.528 108.533 134.744C108.309 133.96 105.081 132.517 104.751 132.405C104.421 132.293 105.193 130.402 103.967 129.954C102.742 129.507 102.3 130.178 102.3 130.178L101.834 133.288L100.403 135.528C99.8075 135.075 99.1843 134.659 98.5372 134.284C97.5358 133.724 95.1971 133.5 95.0851 134.396C94.9732 135.291 96.9511 136.063 97.6416 136.622C98.332 137.182 99.2028 139.851 99.9865 140.634C100.699 141.412 101.367 142.228 101.989 143.079L102.437 144.528C102.437 144.528 103.961 159.201 104.141 162.852C104.322 166.503 104.869 176.163 105.964 177.618C107.059 179.074 107.245 179.994 110.318 178.9C113.391 177.805 113.963 176.343 114.672 173.059C115.381 169.775 115.425 162.504 113.602 159.406Z" fill="white" stroke="#263238" stroke-linecap="round" stroke-linejoin="round"/>
<path d="M114.697 173.078C115.425 169.8 115.425 162.504 113.602 159.394C113.403 159.052 113.16 158.61 112.887 158.088C108.763 156.887 104.844 158.846 104.844 158.846L103.849 159.282C103.98 160.806 104.079 162.081 104.117 162.858C104.303 166.503 104.844 176.169 105.939 177.625C107.034 179.08 107.22 180.001 110.293 178.906C113.366 177.811 113.963 176.362 114.697 173.078Z" fill="#CBCBCB" stroke="#263238" stroke-linecap="round" stroke-linejoin="round"/>
<path d="M100.304 110.094C100.753 111.744 101.004 113.442 101.05 115.151C101.05 117.583 100.304 119.082 101.43 119.828C102.555 120.575 103.488 120.581 103.296 122.08C103.222 122.907 102.894 123.692 102.356 124.325C102.356 124.325 101.983 132.001 101.61 132.753C101.237 133.506 96.3665 132.567 95.2407 132.374C94.1149 132.181 90.9365 133.686 88.8714 129.569C86.8064 125.451 88.4982 119.269 92.2427 116.084C94.8182 113.941 97.5093 111.942 100.304 110.094V110.094Z" fill="white" stroke="#263238" stroke-linecap="round" stroke-linejoin="round"/>
<path d="M101.05 115.12C101.05 115.12 100.036 114.361 99.5015 115.692" stroke="#263238" stroke-linecap="round" stroke-linejoin="round"/>
<path d="M100.142 118.217C99.9962 118.971 100.043 119.75 100.279 120.481" stroke="#263238" stroke-linecap="round" stroke-linejoin="round"/>
<path d="M102.008 127.012C101.842 127.066 101.666 127.083 101.492 127.064C101.319 127.046 101.151 126.99 101 126.902C100.85 126.814 100.719 126.696 100.617 126.554C100.515 126.412 100.444 126.25 100.409 126.079" stroke="#263238" stroke-linecap="round" stroke-linejoin="round"/>
<path d="M104.129 162.217C104.129 162.217 103.507 165.066 102.954 166.571C102.4 168.077 92.4729 170.838 88.15 171.411C85.3023 171.766 82.4362 171.955 79.5664 171.977L79.8401 179.851C79.8401 179.851 88.2122 180.019 88.8031 179.851C89.394 179.683 103.489 173.382 103.489 173.382L109.572 172.586C109.572 172.586 112.128 171.964 112.228 169.98C112.327 167.996 110.069 162.354 109.043 161.477C108.017 160.6 105.852 158.274 104.552 159.705C103.252 161.135 104.129 162.217 104.129 162.217Z" fill="white" stroke="#263238" stroke-linecap="round" stroke-linejoin="round"/>
<path d="M85.463 176.356C85.463 172.953 86.3338 172.866 87.329 171.516C84.7574 171.804 82.1727 171.957 79.5851 171.977L79.3799 179.204C79.3799 179.204 83.964 179.627 86.7568 179.826C86.5266 180.181 85.463 178.545 85.463 176.356Z" fill="#CBCBCB" stroke="#263238" stroke-linecap="round" stroke-linejoin="round"/>
<path d="M112.494 191.657C109.183 187.935 104.973 185.123 100.266 183.49L89.3437 188.149C88.4955 186.066 87.3698 184.108 85.9973 182.327L83.9571 179.839L85.2696 172.704C85.2696 172.704 93.1316 167.318 94.1455 164.985L94.1828 164.911C95.7627 167.355 102.617 177.935 103.905 178.962C105.36 180.131 109.727 180.274 111.617 178.526C113.508 176.779 114.385 175.615 113.95 172.997C113.95 172.997 111.039 166.733 109.434 163.965C107.829 161.197 104.34 151.301 102.592 148.241C101.348 146.052 100.832 144.509 99.9488 143.477C99.3356 142.42 98.6121 141.432 97.7904 140.528C96.0426 138.662 91.2345 138.196 90.2145 137.76C89.1944 137.325 89.0513 137.176 83.2294 135.434C77.4075 133.693 70.8516 132.666 66.1928 136.305C66.1928 136.305 59.9355 143.732 57.4848 155.96C55.0341 168.189 54.86 180.567 54.5739 182.75C54.2877 184.933 51.806 195.563 51.0782 201.677C50.3505 207.791 56.7322 213.931 60.6632 215.834C64.5943 217.737 81.4816 218.017 91.3838 215.834C101.286 213.651 117.01 203.748 117.01 203.748C117.01 203.748 117.589 197.628 112.494 191.657Z" fill="#CBCBCB" stroke="#263238" stroke-linecap="round" stroke-linejoin="round"/>
<path d="M86.75 164.755L84.7534 164.687" stroke="#263238" stroke-linecap="round" stroke-linejoin="round"/>
<path d="M85.9976 161.577C88.7944 162.519 91.5179 163.667 94.1458 165.01L89.0205 164.836" stroke="#263238" stroke-linecap="round" stroke-linejoin="round"/>
<path d="M113.048 165.253C113.623 166.155 113.977 167.18 114.081 168.245C114.081 169.619 114.311 171.46 113.739 170.888C113.167 170.316 112.93 168.356 112.93 168.356L113.048 165.253Z" fill="white" stroke="#263238" stroke-linecap="round" stroke-linejoin="round"/>
<path d="M109.603 163.648C109.603 163.648 111.755 162.479 112.713 163.884C113.67 165.29 113.415 168.095 112.713 169.482C112.01 170.869 111.207 169.545 111.307 168.313C111.406 167.082 109.603 163.648 109.603 163.648Z" fill="white" stroke="#263238" stroke-linecap="round" stroke-linejoin="round"/>
<path d="M108.794 162.155C108.794 162.155 110.952 160.986 111.904 162.392C112.856 163.797 112.601 166.596 111.904 167.99C111.207 169.383 110.399 168.052 110.498 166.82C110.598 165.589 108.794 162.155 108.794 162.155Z" fill="white" stroke="#263238" stroke-linecap="round" stroke-linejoin="round"/>
<path d="M107.805 160.544C107.805 160.544 109.963 159.375 110.915 160.781C111.866 162.186 111.618 164.992 110.915 166.379C110.212 167.766 109.409 166.441 109.509 165.209C109.608 163.978 107.805 160.544 107.805 160.544Z" fill="white" stroke="#263238" stroke-linecap="round" stroke-linejoin="round"/>
<path d="M102.344 104.253C102.379 106.489 101.803 108.691 100.677 110.623C97.492 115.493 94.5001 114.927 93.2126 118.864C91.9251 122.801 90.0031 126.888 92.0557 129.164C94.1083 131.441 95.7877 130.097 95.7877 130.097C95.7877 130.097 97.1001 133.469 93.7289 136.84C90.3576 140.211 84.5544 138.899 83.0553 138.339C82.1114 137.975 81.2283 137.47 80.4367 136.84C80.4367 136.84 79.4975 139.465 74.8387 139.465C70.1799 139.465 64.8867 136.28 64.8867 130.471C64.8867 124.661 68.0651 120.736 68.8178 118.485C69.5704 116.233 67.5053 109.31 70.6838 105.006C73.8622 100.702 78.7698 97.542 82.5018 97.542C86.2338 97.542 93.5174 99.5884 93.5485 99.6008C94.0399 99.8683 97.1872 98.5869 98.0393 98.6429C101.168 98.8171 102.306 101.386 102.344 104.253Z" fill="#263238" stroke="#263238" stroke-linecap="round" stroke-linejoin="round"/>
<path d="M90.1899 130.894C90.8691 130.984 91.5572 130.984 92.2363 130.894" stroke="#919191" stroke-linecap="round" stroke-linejoin="round"/>
<path d="M99.6446 107.519C99.3493 109.186 98.7347 110.781 97.8346 112.215C94.9236 116.787 91.6146 118.435 87.6525 122.789C85.1085 125.607 85.5874 128.418 87.6525 129.892" stroke="#919191" stroke-linecap="round" stroke-linejoin="round"/>
<path d="M99.7002 102.661C99.8214 103.347 99.8818 104.042 99.8806 104.739" stroke="#919191" stroke-linecap="round" stroke-linejoin="round"/>
<path d="M95.7881 107.021C95.7881 107.021 95.1661 113.459 92.4666 117.197C89.7671 120.935 84.3806 122.795 84.5734 126.751" stroke="#919191" stroke-linecap="round" stroke-linejoin="round"/>
<path d="M120.854 214.783C120.854 214.783 124.735 234.724 128.057 244.415C131.378 254.105 134.7 262.969 135.521 263.802C136.342 264.636 138.569 267.678 138.569 267.678C137.54 268.499 136.282 268.984 134.967 269.065C133.027 269.065 130.539 266.577 128.318 265.183C126.098 263.79 125.83 262.969 121.395 261.308C116.96 259.647 120.568 255.219 121.675 252.998C122.315 251.8 122.693 250.479 122.782 249.123C121.022 242.886 117.901 237.117 113.645 232.23C106.735 224.48 105.348 206.504 105.348 206.504L118.64 201.528L120.854 214.783Z" fill="white" stroke="#263238" stroke-linecap="round" stroke-linejoin="round"/>
<path d="M134.974 262.807L134.172 262.969C134.172 262.969 129.463 256.6 125.868 254.385C124.643 253.54 123.201 253.06 121.713 253.005C120.6 255.219 117.005 259.648 121.433 261.308C125.862 262.969 126.142 263.796 128.356 265.183C130.57 266.57 133.065 269.065 135.005 269.065C136.32 268.984 137.577 268.499 138.607 267.678C138.607 267.678 136.386 264.63 135.559 263.803C135.323 263.496 135.127 263.162 134.974 262.807V262.807Z" fill="#CBCBCB" stroke="#263238" stroke-linecap="round" stroke-linejoin="round"/>
<path d="M132.741 268.275C130.552 266.763 128.574 263.404 125.01 261.308C121.769 259.405 120.102 259.33 119.412 259.473C119.581 259.918 119.853 260.315 120.205 260.634C120.558 260.953 120.981 261.184 121.439 261.308C125.874 262.969 126.148 263.796 128.362 265.183C129.762 266.079 131.304 267.46 132.741 268.275Z" fill="#CBCBCB" stroke="#263238" stroke-linecap="round" stroke-linejoin="round"/>
<path d="M134.974 269.065C134.832 269.059 134.691 269.045 134.551 269.021C134.69 269.048 134.832 269.062 134.974 269.065V269.065Z" fill="#CBCBCB" stroke="#263238" stroke-linecap="round" stroke-linejoin="round"/>
<path d="M96.1736 184.734C96.1736 184.734 109.484 180.019 110.728 183.129C111.972 186.239 117.67 197.84 115.592 202.604C113.515 207.369 98.9103 188.92 96.8329 188.522C94.7554 188.124 95.931 186.127 96.1736 184.734Z" fill="white" stroke="#263238" stroke-linecap="round" stroke-linejoin="round"/>
<path d="M109.217 190.811C109.217 190.811 124.35 189.567 127.255 192.266C130.159 194.966 120.207 227.304 114.815 237.461C106.362 253.347 108.918 257.508 108.918 257.508C108.918 257.508 109.54 259.996 113.689 263.939C117.838 267.883 119.082 268.499 117.626 269.121C116.171 269.743 109.957 269.121 109.335 268.704C108.713 268.287 104.154 264.561 100.005 263.317C95.8561 262.073 96.4781 261.24 98.3441 257.508C100.21 253.776 100.005 256.886 102.076 250.461C104.559 242.543 106.52 234.47 107.948 226.296C109.049 219.634 110.728 212.32 110.255 205.546L109.217 190.811Z" fill="white" stroke="#263238" stroke-linecap="round" stroke-linejoin="round"/>
<path d="M120.301 200.937C118.717 197.114 115.99 193.873 112.495 191.657C105.877 187.433 100.267 183.49 100.267 183.49L89.3444 188.149C89.3444 188.149 92.0065 192.665 78.3225 194.947C67.7859 196.701 58.1138 194.157 52.8952 191.091C52.1674 194.705 51.4086 198.723 51.0292 201.665C50.3014 207.779 56.708 213.893 60.6391 215.79C64.5701 217.688 96.2424 221.612 104.77 216.133C120.301 206.199 120.301 200.937 120.301 200.937Z" fill="#263238" stroke="#263238" stroke-linecap="round" stroke-linejoin="round"/>
<path d="M88.1062 191.576C86.6445 192.776 83.7957 194.064 78.3221 194.953C67.7854 196.707 58.1133 194.163 52.8948 191.097C52.7082 192.024 52.5216 192.963 52.335 193.927C55.9115 196.079 63.4252 199.724 71.8969 198.685C82.0044 197.448 86.4952 194.686 88.1062 191.576Z" fill="#CBCBCB" stroke="#263238" stroke-linecap="round" stroke-linejoin="round"/>
<path d="M80.0327 204.899C79.5475 205.521 79.0437 206.143 78.5337 206.765" stroke="white" stroke-linecap="round" stroke-linejoin="round"/>
<path d="M87.652 193.094C85.7378 196.613 83.6021 200.008 81.2578 203.257" stroke="white" stroke-linecap="round" stroke-linejoin="round"/>
<path d="M83.0931 197.031C83.0931 197.031 79.3611 202.007 75.4238 204.911" stroke="white" stroke-linecap="round" stroke-linejoin="round"/>
<path d="M113.689 263.927C109.54 259.996 108.918 257.508 108.918 257.508C108.779 257.379 108.669 257.222 108.595 257.048C108.315 257.34 107.469 257.894 105.398 257.097C103.6 256.407 101.896 255.231 100.098 254.441C99.669 255.206 99.2522 255.685 98.3441 257.508C96.4781 261.24 95.8561 262.073 100.005 263.317C104.154 264.561 108.713 268.293 109.335 268.704C109.957 269.114 116.177 269.743 117.626 269.121C119.075 268.499 117.838 267.864 113.689 263.927Z" fill="#CBCBCB" stroke="#263238" stroke-linecap="round" stroke-linejoin="round"/>
<path d="M117.508 203.046L124.562 198.692" stroke="#263238" stroke-linecap="round" stroke-linejoin="round"/>
<path d="M33.2461 163.623C33.2461 163.623 55.7127 160.812 70.0685 164.867L72.2517 219.485H38.5642C38.5642 219.485 40.735 190.145 33.2461 163.623Z" fill="#919191" stroke="#263238" stroke-linecap="round" stroke-linejoin="round"/>
<path d="M70.0685 164.867C55.7127 160.812 33.2461 163.623 33.2461 163.623C35.6503 172.463 37.2471 181.502 38.0168 190.631C50.5618 196.895 62.0518 205.079 72.0713 214.889L70.0685 164.867Z" fill="#757575" stroke="#263238" stroke-linecap="round" stroke-linejoin="round"/>
<path d="M112.433 270.57C112.178 270.571 111.93 270.494 111.721 270.349C111.512 270.205 111.352 270 111.263 269.761C106.287 256.351 105.043 221.538 104.969 220.064C104.957 219.734 105.077 219.413 105.302 219.171C105.527 218.93 105.839 218.788 106.169 218.776C106.499 218.765 106.82 218.885 107.061 219.11C107.303 219.335 107.445 219.647 107.457 219.977C107.457 220.337 108.75 255.86 113.596 268.891C113.71 269.2 113.697 269.542 113.56 269.842C113.422 270.142 113.171 270.375 112.862 270.489C112.725 270.543 112.579 270.571 112.433 270.57Z" fill="white" stroke="#263238" stroke-linecap="round" stroke-linejoin="round"/>
<path d="M85.3447 270.57C85.0915 270.57 84.8446 270.492 84.6367 270.348C84.4289 270.203 84.2701 269.999 84.1815 269.761C79.2055 256.351 77.9615 221.538 77.8806 220.064C77.8691 219.734 77.9891 219.413 78.2142 219.171C78.4393 218.93 78.7512 218.788 79.0811 218.776C79.411 218.765 79.732 218.885 79.9735 219.11C80.215 219.335 80.3571 219.647 80.3687 219.977C80.3687 220.337 81.6624 255.86 86.514 268.891C86.6286 269.2 86.6157 269.542 86.478 269.842C86.3404 270.142 86.0893 270.375 85.78 270.489C85.6413 270.544 85.4936 270.571 85.3447 270.57V270.57Z" fill="white" stroke="#263238" stroke-linecap="round" stroke-linejoin="round"/>
<path d="M112.097 219.46H37.9731V216.972H109.621C110.281 216.972 110.914 217.235 111.381 217.701C111.847 218.168 112.109 218.801 112.109 219.46H112.097Z" fill="#919191" stroke="#263238" stroke-linecap="round" stroke-linejoin="round"/>
<path d="M112.091 218.857H37.9731V221.326H112.091V218.857Z" fill="white" stroke="#263238" stroke-linecap="round" stroke-linejoin="round"/>
<path d="M69.5146 270.57C69.3274 270.574 69.1417 270.536 68.9714 270.458C68.801 270.38 68.6504 270.265 68.5308 270.121C68.4113 269.977 68.3257 269.807 68.2807 269.626C68.2356 269.444 68.2322 269.254 68.2706 269.071C75.3054 235.744 68.8926 165.663 68.8055 164.961C68.7904 164.797 68.8076 164.632 68.8562 164.476C68.9048 164.319 68.9837 164.173 69.0885 164.047C69.1934 163.921 69.322 163.817 69.4672 163.74C69.6123 163.664 69.7711 163.617 69.9345 163.602C70.2644 163.571 70.5929 163.673 70.8478 163.885C71.1027 164.096 71.263 164.401 71.2935 164.73C71.362 165.44 77.8245 235.887 70.7151 269.581C70.6571 269.858 70.5067 270.106 70.2885 270.286C70.0703 270.466 69.7973 270.566 69.5146 270.57Z" fill="white" stroke="#263238" stroke-linecap="round" stroke-linejoin="round"/>
<path d="M30.9506 269.662C30.8347 269.663 30.7192 269.646 30.6085 269.612C30.2923 269.522 30.0245 269.311 29.8636 269.024C29.7028 268.737 29.662 268.399 29.7501 268.082C45.9221 210.671 32.1946 164.444 32.0578 163.984C31.9794 163.674 32.023 163.347 32.1797 163.068C32.3364 162.79 32.594 162.583 32.8994 162.489C33.2047 162.396 33.5343 162.423 33.82 162.566C34.1056 162.709 34.3254 162.956 34.4338 163.256C34.5769 163.723 48.5408 210.609 32.1448 268.754C32.0717 269.014 31.9156 269.244 31.7 269.408C31.4845 269.572 31.2214 269.661 30.9506 269.662V269.662Z" fill="white" stroke="#263238" stroke-linecap="round" stroke-linejoin="round"/>
<path d="M258.367 167.1C258.367 167.1 250.722 162.852 250.156 172.481C249.59 182.109 248.178 244.689 248.178 244.689" stroke="#263238" stroke-width="2" stroke-linecap="round" stroke-linejoin="round"/>
<path d="M246.188 173.326C246.188 173.326 252.408 187.203 249.59 243.843" stroke="#263238" stroke-width="2" stroke-linecap="round" stroke-linejoin="round"/>
<path d="M252.314 169.041C252.314 169.041 249.385 170.907 247.724 168.767C246.063 166.628 248.85 162.697 246.393 161.017C243.936 159.338 239.688 161.9 239.688 161.9C239.688 161.9 242.953 162.858 242.847 164.643C242.742 166.429 241.168 167.1 240.981 166.323C240.795 165.545 239.209 161.614 236.559 163.25C235.793 163.701 235.127 164.303 234.601 165.02C234.075 165.736 233.7 166.552 233.499 167.417C233.499 167.417 239.675 166.758 240.048 169.078C240.422 171.398 237.517 168.674 234.967 168.525C232.417 168.375 230.09 168.749 230.258 170.291C230.315 171.656 230.234 173.023 230.016 174.371C231.412 173.212 233.177 172.59 234.992 172.617C237.797 172.785 237.691 174.57 235.141 174.421C232.591 174.272 230.401 176.698 230.401 176.698C230.401 176.698 232.728 180.672 235.682 182.638C238.637 184.603 239.7 183.882 240.036 182.383C240.372 180.884 239.588 176.984 241.373 177.09C243.158 177.195 238.419 183.82 240.695 184.211C242.972 184.603 244.807 183.944 245.404 182.445L246.026 180.946C246.026 180.946 245.23 177.058 245.578 175.547C245.926 174.036 246.343 175.591 246.747 177.413C247.152 179.235 247.407 183.589 248.184 183.378C248.962 183.167 251.456 179.994 252.041 178.744C252.625 177.494 248.756 173.693 248.8 172.928C248.844 172.163 251.829 173.619 252.296 174.415C252.635 175.02 252.94 175.643 253.21 176.281C253.21 176.281 255.076 175.112 255.026 171.529C254.976 167.946 252.314 169.041 252.314 169.041Z" fill="#CBCBCB"/>
<path opacity="0.3" d="M252.314 169.041C252.314 169.041 249.385 170.907 247.724 168.767C246.063 166.628 248.85 162.697 246.393 161.017C243.936 159.338 239.688 161.9 239.688 161.9C239.688 161.9 242.953 162.858 242.847 164.643C242.742 166.429 241.168 167.1 240.981 166.323C240.795 165.545 239.209 161.614 236.559 163.25C235.793 163.701 235.127 164.303 234.601 165.02C234.075 165.736 233.7 166.552 233.499 167.417C233.499 167.417 239.675 166.758 240.048 169.078C240.422 171.398 237.517 168.674 234.967 168.525C232.417 168.375 230.09 168.749 230.258 170.291C230.315 171.656 230.234 173.023 230.016 174.371C231.412 173.212 233.177 172.59 234.992 172.617C237.797 172.785 237.691 174.57 235.141 174.421C232.591 174.272 230.401 176.698 230.401 176.698C230.401 176.698 232.728 180.672 235.682 182.638C238.637 184.603 239.7 183.882 240.036 182.383C240.372 180.884 239.588 176.984 241.373 177.09C243.158 177.195 238.419 183.82 240.695 184.211C242.972 184.603 244.807 183.944 245.404 182.445L246.026 180.946C246.026 180.946 245.23 177.058 245.578 175.547C245.926 174.036 246.343 175.591 246.747 177.413C247.152 179.235 247.407 183.589 248.184 183.378C248.962 183.167 251.456 179.994 252.041 178.744C252.625 177.494 248.756 173.693 248.8 172.928C248.844 172.163 251.829 173.619 252.296 174.415C252.635 175.02 252.94 175.643 253.21 176.281C253.21 176.281 255.076 175.112 255.026 171.529C254.976 167.946 252.314 169.041 252.314 169.041Z" fill="#263238"/>
<path d="M237.486 177.444C239.395 175.087 242.201 171.896 244.558 170.372" stroke="#263238" stroke-linecap="round" stroke-linejoin="round"/>
<path d="M235.278 180.312C235.278 180.312 235.763 179.634 236.559 178.614" stroke="#263238" stroke-linecap="round" stroke-linejoin="round"/>
<path d="M245.802 170.957C245.802 170.957 248.638 174.962 249.161 179.086" stroke="#263238" stroke-linecap="round" stroke-linejoin="round"/>
<path d="M242.581 173.326C242.581 173.326 243.377 172.86 243.078 177.96" stroke="#263238" stroke-linecap="round" stroke-linejoin="round"/>
<path d="M244.664 168.562C244.664 168.562 246.287 167.125 245.429 164.258" stroke="#263238" stroke-linecap="round" stroke-linejoin="round"/>
<path d="M242.475 171.019L241.318 168.904" stroke="#263238" stroke-linecap="round" stroke-linejoin="round"/>
<path d="M240.043 173.177C240.043 173.177 236.373 170.403 234.078 170.266" stroke="#263238" stroke-linecap="round" stroke-linejoin="round"/>
<path d="M262.739 161.484C262.739 161.484 262.621 165.688 259.337 165.894C256.053 166.099 254.025 160.625 250.666 161.944C247.307 163.263 246.984 169.259 246.984 169.259C246.984 169.259 250.168 166.64 251.885 167.959C253.602 169.277 253.204 171.317 252.277 170.994C251.35 170.671 246.362 169.557 246.188 173.326C246.118 174.401 246.267 175.479 246.625 176.494C246.983 177.51 247.543 178.442 248.271 179.235C248.271 179.235 251.823 172.599 254.41 173.805C256.998 175.012 252.277 176.069 250.386 178.52C248.495 180.971 247.276 183.552 248.949 184.442C250.355 185.312 251.668 186.322 252.868 187.458C252.868 187.458 252.42 183.988 254.498 181.294C256.575 178.601 258.286 179.92 256.401 182.37C254.516 184.821 255.449 188.671 255.449 188.671C255.449 188.671 261.01 189.051 264.991 187.427C268.971 185.804 268.996 184.261 267.715 182.887C266.434 181.512 262.005 179.658 263.324 177.911C264.642 176.163 268.051 185.455 269.998 183.44C271.945 181.425 272.529 179.142 271.435 177.519L270.34 175.902C270.34 175.902 265.911 174.036 264.63 172.667C263.349 171.299 265.196 171.933 267.292 172.767C269.388 173.6 273.923 176.318 274.246 175.392C274.569 174.465 273.083 169.794 272.237 168.375C271.391 166.957 264.935 168.22 264.201 167.654C263.467 167.088 266.956 165.091 268.07 165.166C268.904 165.235 269.735 165.349 270.558 165.508C270.558 165.508 270.657 162.846 267.037 160.451C263.417 158.056 262.739 161.484 262.739 161.484Z" fill="#CBCBCB"/>
<path opacity="0.2" d="M262.739 161.484C262.739 161.484 262.621 165.688 259.337 165.894C256.053 166.099 254.025 160.625 250.666 161.944C247.307 163.263 246.984 169.259 246.984 169.259C246.984 169.259 250.168 166.64 251.885 167.959C253.602 169.277 253.204 171.317 252.277 170.994C251.35 170.671 246.362 169.557 246.188 173.326C246.118 174.401 246.267 175.479 246.625 176.494C246.983 177.51 247.543 178.442 248.271 179.235C248.271 179.235 251.823 172.599 254.41 173.805C256.998 175.012 252.277 176.069 250.386 178.52C248.495 180.971 247.276 183.552 248.949 184.442C250.355 185.312 251.668 186.322 252.868 187.458C252.868 187.458 252.42 183.988 254.498 181.294C256.575 178.601 258.286 179.92 256.401 182.37C254.516 184.821 255.449 188.671 255.449 188.671C255.449 188.671 261.01 189.051 264.991 187.427C268.971 185.804 268.996 184.261 267.715 182.887C266.434 181.512 262.005 179.658 263.324 177.911C264.642 176.163 268.051 185.455 269.998 183.44C271.945 181.425 272.529 179.142 271.435 177.519L270.34 175.902C270.34 175.902 265.911 174.036 264.63 172.667C263.349 171.299 265.196 171.933 267.292 172.767C269.388 173.6 273.923 176.318 274.246 175.392C274.569 174.465 273.083 169.794 272.237 168.375C271.391 166.957 264.935 168.22 264.201 167.654C263.467 167.088 266.956 165.091 268.07 165.166C268.904 165.235 269.735 165.349 270.558 165.508C270.558 165.508 270.657 162.846 267.037 160.451C263.417 158.056 262.739 161.484 262.739 161.484Z" fill="#263238"/>
<path d="M261.047 182.053C259.996 178.514 258.702 173.538 258.789 170.154" stroke="#263238" stroke-linecap="round" stroke-linejoin="round"/>
<path d="M262.41 186.227C262.41 186.227 262.061 185.269 261.583 183.782" stroke="#263238" stroke-linecap="round" stroke-linejoin="round"/>
<path d="M260.22 169.308C260.22 169.308 266.16 169.196 270.645 171.485" stroke="#263238" stroke-linecap="round" stroke-linejoin="round"/>
<path d="M260.407 174.16C260.407 174.16 260.481 173.047 265.383 176.822" stroke="#263238" stroke-linecap="round" stroke-linejoin="round"/>
<path d="M257.073 168.829C257.073 168.829 256.737 166.229 253.285 165.135" stroke="#263238" stroke-linecap="round" stroke-linejoin="round"/>
<path d="M258.012 172.68L255.107 172.394" stroke="#263238" stroke-linecap="round" stroke-linejoin="round"/>
<path d="M258.516 176.586C258.516 176.586 253.235 178.371 251.537 180.579" stroke="#263238" stroke-linecap="round" stroke-linejoin="round"/>
<path d="M227.503 189.474C227.503 189.474 244.21 200.514 243.93 243.277" stroke="#263238" stroke-width="2" stroke-linecap="round" stroke-linejoin="round"/>
<path d="M248.104 186.557C248.104 186.557 247.569 191.396 243.75 191.321C239.931 191.246 238.152 184.74 234.121 185.947C230.09 187.154 229.176 194.033 229.176 194.033C229.176 194.033 233.107 191.309 234.961 193.001C236.814 194.692 236.161 197 235.122 196.54C234.084 196.079 228.43 194.319 227.876 198.654C227.696 199.888 227.769 201.146 228.09 202.351C228.41 203.556 228.973 204.683 229.742 205.664C229.742 205.664 234.469 198.343 237.337 199.986C240.204 201.628 234.662 202.393 232.249 205.042C229.835 207.692 228.2 210.553 230.028 211.735C231.57 212.873 232.991 214.165 234.27 215.592C234.27 215.592 234.078 211.549 236.727 208.631C239.377 205.714 241.237 207.387 238.823 210.056C236.41 212.724 237.132 217.234 237.132 217.234C237.132 217.234 243.519 218.198 248.265 216.705C253.011 215.212 253.179 213.433 251.829 211.729C250.48 210.025 245.547 207.462 247.233 205.608C248.918 203.755 251.972 214.764 254.411 212.618C256.849 210.472 257.732 207.904 256.625 205.926L255.518 203.948C255.518 203.948 250.585 201.391 249.236 199.681C247.886 197.97 249.957 198.891 252.296 200.048C254.635 201.205 259.617 204.769 260.071 203.736C260.525 202.704 259.256 197.18 258.416 195.445C257.577 193.71 250.007 194.574 249.211 193.853C248.415 193.131 252.638 191.159 253.913 191.365C254.863 191.523 255.803 191.73 256.731 191.987C256.731 191.987 257.092 188.926 253.142 185.816C249.192 182.706 248.104 186.557 248.104 186.557Z" fill="#CBCBCB"/>
<path opacity="0.3" d="M248.104 186.557C248.104 186.557 247.569 191.396 243.75 191.321C239.931 191.246 238.152 184.74 234.121 185.947C230.09 187.154 229.176 194.033 229.176 194.033C229.176 194.033 233.107 191.309 234.961 193.001C236.814 194.692 236.161 197 235.122 196.54C234.084 196.079 228.43 194.319 227.876 198.654C227.696 199.888 227.769 201.146 228.09 202.351C228.41 203.556 228.973 204.683 229.742 205.664C229.742 205.664 234.469 198.343 237.337 199.986C240.204 201.628 234.662 202.393 232.249 205.042C229.835 207.692 228.2 210.553 230.028 211.735C231.57 212.873 232.991 214.165 234.27 215.592C234.27 215.592 234.078 211.549 236.727 208.631C239.377 205.714 241.237 207.387 238.823 210.056C236.41 212.724 237.132 217.234 237.132 217.234C237.132 217.234 243.519 218.198 248.265 216.705C253.011 215.212 253.179 213.433 251.829 211.729C250.48 210.025 245.547 207.462 247.233 205.608C248.918 203.755 251.972 214.764 254.411 212.618C256.849 210.472 257.732 207.904 256.625 205.926L255.518 203.948C255.518 203.948 250.585 201.391 249.236 199.681C247.886 197.97 249.957 198.891 252.296 200.048C254.635 201.205 259.617 204.769 260.071 203.736C260.525 202.704 259.256 197.18 258.416 195.445C257.577 193.71 250.007 194.574 249.211 193.853C248.415 193.131 252.638 191.159 253.913 191.365C254.863 191.523 255.803 191.73 256.731 191.987C256.731 191.987 257.092 188.926 253.142 185.816C249.192 182.706 248.104 186.557 248.104 186.557Z" fill="#263238"/>
<path d="M244.21 210.13C243.314 205.975 242.313 200.097 242.723 196.185" stroke="#263238" stroke-linecap="round" stroke-linejoin="round"/>
<path d="M245.392 215.075C245.392 215.075 245.081 213.937 244.664 212.177" stroke="#263238" stroke-linecap="round" stroke-linejoin="round"/>
<path d="M244.446 195.345C244.446 195.345 251.288 195.781 256.264 198.841" stroke="#263238" stroke-linecap="round" stroke-linejoin="round"/>
<path d="M244.216 200.906C244.216 200.906 244.409 199.631 249.708 204.451" stroke="#263238" stroke-linecap="round" stroke-linejoin="round"/>
<path d="M240.87 194.499C240.87 194.499 240.727 191.464 236.852 189.872" stroke="#263238" stroke-linecap="round" stroke-linejoin="round"/>
<path d="M241.591 199.028L238.27 198.424" stroke="#263238" stroke-linecap="round" stroke-linejoin="round"/>
<path d="M241.809 203.58C241.809 203.58 235.545 205.148 233.375 207.53" stroke="#263238" stroke-linecap="round" stroke-linejoin="round"/>
<path d="M234.015 223.167C234.015 223.167 244.776 231.378 245.908 243.557L243.644 202.772" stroke="#263238" stroke-width="2" stroke-linecap="round" stroke-linejoin="round"/>
<path d="M260.064 217.221C245.908 214.671 245.908 243.556 245.908 243.556" stroke="#263238" stroke-width="2" stroke-linecap="round" stroke-linejoin="round"/>
<path d="M247.606 243.277C247.606 243.277 239.396 183.527 263.156 183.527" stroke="#263238" stroke-width="2" stroke-linecap="round" stroke-linejoin="round"/>
<path d="M254.672 215.504C252.737 213.327 248.626 213.327 246.213 218.888C243.799 224.448 245.97 223.484 245.97 223.484C245.97 223.484 250.56 222.029 253.465 221.065C256.37 220.101 260.232 217.681 260.475 219.13C260.718 220.58 258.541 222.029 255.878 222.514C253.216 222.999 246.213 224.934 246.934 226.408C247.656 227.882 249.354 232.211 249.354 232.211C251.419 230.457 253.598 228.842 255.878 227.378C259.026 225.444 260.96 226.165 259.268 228.342C257.576 230.519 252.737 232.933 253.708 235.837C254.678 238.742 260.475 242.362 260.475 242.362C260.475 242.362 261.203 236.322 262.895 234.388C264.586 232.454 264.586 234.631 264.101 238.014C263.859 239.455 263.697 240.909 263.616 242.368L270.383 244.788C271.49 243.103 272.701 241.489 274.01 239.955L275.254 238.711C275.254 238.711 269.936 234.121 269.693 231.247C269.45 228.373 273.319 231.247 274.526 231.732C275.733 232.217 277.667 235.601 277.667 235.601C277.667 235.601 278.88 230.04 279.123 228.106L279.365 226.171C279.365 226.171 274.283 224.237 272.349 224.237C270.415 224.237 269.45 225.686 269.45 223.758C269.45 221.83 271.385 220.611 273.562 220.853C275.532 221.183 277.472 221.667 279.365 222.303C279.365 222.303 280.814 221.096 280.329 217.47C279.844 213.843 278.637 213.843 275.739 214.808C272.84 215.772 270.9 217.955 268.723 217.955C266.546 217.955 267.759 215.293 269.208 214.571C270.657 213.85 274.283 212.394 275.011 212.152C275.739 211.909 271.142 208.525 268.723 208.04C266.303 207.555 263.175 209.284 263.405 211.666C263.859 216.711 256.606 217.7 254.672 215.504Z" fill="#CBCBCB"/>
<path d="M270.234 240.397C270.309 241.122 270.358 241.85 270.383 242.58" stroke="#263238" stroke-linecap="round" stroke-linejoin="round"/>
<path d="M265.376 223.043C267.507 227.83 269.043 232.86 269.948 238.021" stroke="#263238" stroke-linecap="round" stroke-linejoin="round"/>
<path d="M264.506 221.102C263.312 218.527 262.41 216.954 262.41 216.954C263.729 216.332 264.825 215.32 265.551 214.055C266.116 212.909 266.946 211.914 267.97 211.15" stroke="#263238" stroke-linecap="round" stroke-linejoin="round"/>
<path d="M253.95 225.164C253.95 225.164 262.658 221.538 262.658 222.259" stroke="#263238" stroke-linecap="round" stroke-linejoin="round"/>
<path d="M267.46 220.58C267.46 220.58 271.329 218.646 274.712 218.646" stroke="#263238" stroke-linecap="round" stroke-linejoin="round"/>
<path d="M266.035 226.408C264.357 227.787 262.818 229.327 261.439 231.005C260.028 232.668 258.887 234.542 258.055 236.559" stroke="#263238" stroke-linecap="round" stroke-linejoin="round"/>
<path d="M268.705 227.353C268.705 227.353 273.786 225.898 276.442 228.317" stroke="#263238" stroke-linecap="round" stroke-linejoin="round"/>
<path d="M277.891 194.686C275.26 193.131 272.349 193.094 270.919 191.452C269.488 189.81 272.293 188.964 273.792 189.586C275.291 190.208 278.768 191.993 279.421 192.378C280.074 192.764 279.627 187.085 278.407 184.914C277.188 182.744 273.848 181.524 272.187 183.279C268.673 186.967 263.187 182.128 263.56 179.242C263.934 176.356 261.24 173.252 255.474 175.068C249.708 176.884 251.848 177.898 251.848 177.898C251.848 177.898 255.953 180.417 258.591 181.972C261.228 183.527 265.582 184.865 264.643 185.997C263.703 187.129 261.184 186.438 259.076 184.753C256.967 183.067 250.915 179.036 250.293 180.535C249.671 182.035 247.494 186.165 247.494 186.165C250.174 186.575 252.823 187.163 255.425 187.925C258.945 189.032 259.667 190.966 256.917 191.116C254.168 191.265 249.167 189.2 247.587 191.831C246.007 194.462 247.096 201.217 247.096 201.217C247.096 201.217 252.134 197.808 254.703 197.815C257.272 197.821 255.63 199.251 252.756 201.105C251.51 201.866 250.307 202.697 249.155 203.593L251.767 210.292C253.765 210.021 255.778 209.876 257.794 209.857L259.499 209.981C259.499 209.981 259.499 202.952 261.514 200.869C263.529 198.785 263.89 203.605 264.319 204.837C264.748 206.069 263.461 209.745 263.461 209.745C263.461 209.745 268.437 207.014 270.066 205.926L271.69 204.843C271.69 204.843 269.824 199.737 268.549 198.281C267.274 196.826 265.557 197.037 267.012 195.793C268.468 194.549 270.657 195.171 271.901 197C272.944 198.702 273.849 200.484 274.607 202.33C274.607 202.33 276.473 202.635 278.893 199.892C281.312 197.149 280.522 196.241 277.891 194.686ZM255.02 202.424C253.086 201.453 257.676 199.519 257.676 199.519C259.374 199.283 256.948 203.394 255.02 202.424ZM258.273 193.398C257.452 192.988 259.922 192.154 259.922 192.154C263.492 192.82 259.094 193.809 258.267 193.398H258.273Z" fill="#CBCBCB"/>
<path d="M254.958 207.35C254.46 207.879 253.938 208.395 253.409 208.892" stroke="#263238" stroke-linecap="round" stroke-linejoin="round"/>
<path d="M264.879 192.304C262.657 197.047 259.86 201.499 256.55 205.559" stroke="#263238" stroke-linecap="round" stroke-linejoin="round"/>
<path d="M265.774 190.376C266.938 187.782 267.528 186.071 267.528 186.071C268.866 186.658 270.35 186.823 271.783 186.544C273.017 186.218 274.311 186.19 275.558 186.463" stroke="#263238" stroke-linecap="round" stroke-linejoin="round"/>
<path d="M263.672 189.741C264.219 189.262 255.779 185.07 255.779 185.07" stroke="#263238" stroke-linecap="round" stroke-linejoin="round"/>
<path d="M268.119 192.279C268.119 192.279 272.119 193.933 274.339 196.49" stroke="#263238" stroke-linecap="round" stroke-linejoin="round"/>
<path d="M262.789 194.991C260.649 194.628 258.478 194.473 256.308 194.53C254.124 194.558 251.959 194.925 249.889 195.619" stroke="#263238" stroke-linecap="round" stroke-linejoin="round"/>
<path d="M263.803 197.634C263.803 197.634 268.225 200.514 268.157 204.109" stroke="#263238" stroke-linecap="round" stroke-linejoin="round"/>
<path d="M240.322 228.181C238.207 226.937 235.862 226.906 234.724 225.581C233.586 224.256 235.825 223.59 237.032 224.088C238.238 224.585 241.037 226.029 241.566 226.34C242.095 226.651 241.728 222.073 240.745 220.35C239.762 218.627 237.075 217.625 235.738 219.031C232.908 222.004 228.492 218.104 228.796 215.784C229.101 213.464 226.931 210.964 222.272 212.425C217.613 213.887 219.355 214.702 219.355 214.702C219.355 214.702 222.657 216.73 224.778 217.98C226.899 219.23 230.407 220.312 229.649 221.22C228.89 222.129 226.868 221.581 225.17 220.219C223.472 218.857 218.602 215.616 218.104 216.823C217.607 218.03 215.853 221.351 215.853 221.351C218.009 221.684 220.14 222.157 222.234 222.769C225.065 223.659 225.643 225.214 223.429 225.332C221.214 225.45 217.209 223.789 215.965 225.91C214.721 228.031 215.567 233.468 215.567 233.468C215.567 233.468 219.622 230.718 221.687 230.725C223.752 230.731 222.433 231.882 220.126 233.374C219.123 233.987 218.155 234.655 217.227 235.377L219.323 240.764C220.932 240.548 222.552 240.434 224.175 240.422L225.55 240.515C225.55 240.515 225.55 234.861 227.173 233.182C228.797 231.502 229.083 235.383 229.425 236.379C229.767 237.374 228.734 240.328 228.734 240.328C228.734 240.328 232.752 238.126 234.052 237.256L235.359 236.379C235.359 236.379 233.853 232.273 232.833 231.098C231.813 229.922 230.42 230.103 231.589 229.083C232.759 228.062 234.519 228.597 235.52 230.047C236.36 231.417 237.09 232.852 237.704 234.338C237.704 234.338 239.203 234.581 241.149 232.379C243.096 230.177 242.443 229.437 240.322 228.181ZM221.911 234.401C220.356 233.623 224.051 232.068 224.051 232.068C225.413 231.882 223.466 235.191 221.911 234.407V234.401ZM224.542 227.148C223.876 226.812 225.867 226.153 225.867 226.153C228.734 226.706 225.195 227.478 224.542 227.148Z" fill="#CBCBCB"/>
<path d="M221.874 238.375C221.47 238.798 221.053 239.215 220.63 239.619" stroke="#263238" stroke-linecap="round" stroke-linejoin="round"/>
<path d="M229.854 226.265C228.067 230.082 225.817 233.665 223.155 236.932" stroke="#263238" stroke-linecap="round" stroke-linejoin="round"/>
<path d="M230.576 224.71C231.509 222.626 231.988 221.251 231.988 221.251C233.063 221.722 234.256 221.854 235.409 221.631C236.401 221.368 237.442 221.347 238.444 221.569" stroke="#263238" stroke-linecap="round" stroke-linejoin="round"/>
<path d="M222.527 220.443C222.527 220.443 229.325 223.82 228.884 224.175" stroke="#263238" stroke-linecap="round" stroke-linejoin="round"/>
<path d="M232.46 226.246C232.46 226.246 235.676 227.577 237.436 229.636" stroke="#263238" stroke-linecap="round" stroke-linejoin="round"/>
<path d="M228.168 228.429C226.447 228.138 224.701 228.015 222.956 228.062C221.2 228.079 219.457 228.375 217.793 228.939" stroke="#263238" stroke-linecap="round" stroke-linejoin="round"/>
<path d="M228.989 230.557C228.989 230.557 232.547 232.877 232.479 235.763" stroke="#263238" stroke-linecap="round" stroke-linejoin="round"/>
<path d="M231.689 188.261C231.689 188.261 229.027 190.195 227.335 188.261C225.643 186.326 228.063 182.457 225.643 181.008C223.224 179.559 219.361 182.215 219.361 182.215C219.361 182.215 222.502 182.943 222.502 184.634C222.502 186.326 221.053 187.054 220.81 186.326C220.568 185.598 218.876 181.972 216.456 183.67C215.759 184.14 215.164 184.745 214.708 185.451C214.251 186.157 213.943 186.947 213.8 187.775C213.8 187.775 219.597 186.811 220.082 188.988C220.568 191.165 217.669 188.746 215.249 188.746C212.83 188.746 210.653 189.231 210.895 190.68C211.027 191.966 211.027 193.263 210.895 194.549C212.148 193.377 213.778 192.69 215.492 192.615C218.148 192.615 218.148 194.306 215.735 194.306C213.321 194.306 211.381 196.726 211.381 196.726C211.381 196.726 213.8 200.352 216.699 202.044C219.597 203.736 220.568 203.008 220.81 201.559C221.053 200.11 220.082 196.483 221.774 196.483C223.466 196.483 219.361 203.008 221.532 203.251C223.702 203.493 225.401 202.766 225.886 201.316L226.371 199.867C226.371 199.867 225.401 196.241 225.643 194.792C225.886 193.342 226.371 194.792 226.85 196.483C227.329 198.175 227.82 202.281 228.548 202.044C229.276 201.808 231.446 198.654 231.932 197.448C232.417 196.241 228.548 192.857 228.548 192.129C228.548 191.402 231.446 192.615 231.932 193.336C232.417 194.058 232.896 195.028 232.896 195.028C232.896 195.028 234.587 193.821 234.345 190.438C234.102 187.054 231.689 188.261 231.689 188.261Z" fill="#CBCBCB"/>
<path d="M218.142 197.031C219.815 194.698 222.297 191.526 224.437 189.953" stroke="#263238" stroke-linecap="round" stroke-linejoin="round"/>
<path d="M216.214 199.867C216.214 199.867 216.643 199.195 217.333 198.188" stroke="#263238" stroke-linecap="round" stroke-linejoin="round"/>
<path d="M225.643 190.438C225.643 190.438 228.548 194.064 229.269 197.933" stroke="#263238" stroke-linecap="round" stroke-linejoin="round"/>
<path d="M222.745 192.857C222.745 192.857 223.466 192.372 223.466 197.211" stroke="#263238" stroke-linecap="round" stroke-linejoin="round"/>
<path d="M224.437 188.261C224.437 188.261 225.886 186.811 224.922 184.149" stroke="#263238" stroke-linecap="round" stroke-linejoin="round"/>
<path d="M222.502 190.68L221.295 188.746" stroke="#263238" stroke-linecap="round" stroke-linejoin="round"/>
<path d="M220.325 192.857C220.325 192.857 216.699 190.438 214.522 190.438" stroke="#263238" stroke-linecap="round" stroke-linejoin="round"/>
<path d="M256.103 242.424H237.412V269.326H256.103V242.424Z" fill="#263238" stroke="#263238" stroke-width="2" stroke-linecap="round" stroke-linejoin="round"/>
</svg>
